<mxfile host="Electron" agent="Mozilla/5.0 (Windows NT 10.0; Win64; x64) AppleWebKit/537.36 (KHTML, like Gecko) draw.io/28.0.4 Chrome/138.0.7204.97 Electron/37.2.1 Safari/537.36" version="28.0.4">
  <diagram id="qO9W2PnId2DTreHsg8w-" name="Page-1">
    <mxGraphModel dx="491" dy="323" grid="1" gridSize="10" guides="1" tooltips="1" connect="1" arrows="1" fold="1" page="0" pageScale="1" pageWidth="827" pageHeight="1169" math="0" shadow="0">
      <root>
        <mxCell id="0" />
        <mxCell id="1" parent="0" />
        <mxCell id="qOO70KsoDbuKheBEqoZG-1" value="Q" style="whiteSpace=wrap;html=1;aspect=fixed;fontSize=17;fontFamily=Verdana;fontStyle=1;fontColor=#AFB9C7;fillColor=#383E47;rounded=1;" parent="1" vertex="1">
          <mxGeometry x="150" y="137" width="40" height="40" as="geometry" />
        </mxCell>
        <mxCell id="qOO70KsoDbuKheBEqoZG-2" value="W" style="whiteSpace=wrap;html=1;aspect=fixed;fontSize=17;fontFamily=Verdana;fontStyle=1;fontColor=#AFB9C7;fillColor=#383E47;rounded=1;" parent="1" vertex="1">
          <mxGeometry x="190" y="112" width="40" height="40" as="geometry" />
        </mxCell>
        <mxCell id="qOO70KsoDbuKheBEqoZG-3" value="E" style="whiteSpace=wrap;html=1;aspect=fixed;fontSize=17;fontFamily=Verdana;fontStyle=1;fontColor=#AFB9C7;fillColor=#383E47;rounded=1;" parent="1" vertex="1">
          <mxGeometry x="230" y="97" width="40" height="40" as="geometry" />
        </mxCell>
        <mxCell id="qOO70KsoDbuKheBEqoZG-4" value="R" style="whiteSpace=wrap;html=1;aspect=fixed;fontSize=17;fontFamily=Verdana;fontStyle=1;fontColor=#AFB9C7;fillColor=#383E47;rounded=1;" parent="1" vertex="1">
          <mxGeometry x="270" y="112" width="40" height="40" as="geometry" />
        </mxCell>
        <mxCell id="qOO70KsoDbuKheBEqoZG-5" value="T" style="whiteSpace=wrap;html=1;aspect=fixed;fontSize=17;fontFamily=Verdana;fontStyle=1;fontColor=#AFB9C7;fillColor=#383E47;rounded=1;" parent="1" vertex="1">
          <mxGeometry x="310" y="120" width="40" height="40" as="geometry" />
        </mxCell>
        <mxCell id="qOO70KsoDbuKheBEqoZG-6" value="A" style="whiteSpace=wrap;html=1;aspect=fixed;fontSize=17;fontFamily=Verdana;fontStyle=1;fontColor=#AFB9C7;fillColor=#383E47;rounded=1;" parent="1" vertex="1">
          <mxGeometry x="150" y="177" width="40" height="40" as="geometry" />
        </mxCell>
        <mxCell id="qOO70KsoDbuKheBEqoZG-7" value="S" style="whiteSpace=wrap;html=1;aspect=fixed;fontSize=17;fontFamily=Verdana;fontStyle=1;fontColor=#AFB9C7;fillColor=#383E47;rounded=1;" parent="1" vertex="1">
          <mxGeometry x="190" y="152" width="40" height="40" as="geometry" />
        </mxCell>
        <mxCell id="qOO70KsoDbuKheBEqoZG-8" value="D" style="whiteSpace=wrap;html=1;aspect=fixed;fontSize=17;fontFamily=Verdana;fontStyle=1;fontColor=#AFB9C7;fillColor=#383E47;rounded=1;" parent="1" vertex="1">
          <mxGeometry x="230" y="137" width="40" height="40" as="geometry" />
        </mxCell>
        <mxCell id="qOO70KsoDbuKheBEqoZG-9" value="F" style="whiteSpace=wrap;html=1;aspect=fixed;fontSize=17;fontFamily=Verdana;fontStyle=1;fontColor=#AFB9C7;fillColor=#383E47;rounded=1;" parent="1" vertex="1">
          <mxGeometry x="270" y="152" width="40" height="40" as="geometry" />
        </mxCell>
        <mxCell id="qOO70KsoDbuKheBEqoZG-10" value="G" style="whiteSpace=wrap;html=1;aspect=fixed;fontSize=17;fontFamily=Verdana;fontStyle=1;fontColor=#AFB9C7;fillColor=#383E47;rounded=1;" parent="1" vertex="1">
          <mxGeometry x="310" y="160" width="40" height="40" as="geometry" />
        </mxCell>
        <mxCell id="qOO70KsoDbuKheBEqoZG-11" value="Z" style="whiteSpace=wrap;html=1;aspect=fixed;fontSize=17;fontFamily=Verdana;fontStyle=1;fontColor=#AFB9C7;fillColor=#383E47;rounded=1;" parent="1" vertex="1">
          <mxGeometry x="150" y="217" width="40" height="40" as="geometry" />
        </mxCell>
        <mxCell id="qOO70KsoDbuKheBEqoZG-12" value="X" style="whiteSpace=wrap;html=1;aspect=fixed;fontSize=17;fontFamily=Verdana;fontStyle=1;fontColor=#AFB9C7;fillColor=#383E47;rounded=1;" parent="1" vertex="1">
          <mxGeometry x="190" y="192" width="40" height="40" as="geometry" />
        </mxCell>
        <mxCell id="qOO70KsoDbuKheBEqoZG-13" value="C" style="whiteSpace=wrap;html=1;aspect=fixed;fontSize=17;fontFamily=Verdana;fontStyle=1;fontColor=#AFB9C7;fillColor=#383E47;rounded=1;" parent="1" vertex="1">
          <mxGeometry x="230" y="177" width="40" height="40" as="geometry" />
        </mxCell>
        <mxCell id="qOO70KsoDbuKheBEqoZG-14" value="V" style="whiteSpace=wrap;html=1;aspect=fixed;fontSize=17;fontFamily=Verdana;fontStyle=1;fontColor=#AFB9C7;fillColor=#383E47;rounded=1;" parent="1" vertex="1">
          <mxGeometry x="270" y="192" width="40" height="40" as="geometry" />
        </mxCell>
        <mxCell id="qOO70KsoDbuKheBEqoZG-15" value="B" style="whiteSpace=wrap;html=1;aspect=fixed;fontSize=17;fontFamily=Verdana;fontStyle=1;fontColor=#AFB9C7;fillColor=#383E47;rounded=1;" parent="1" vertex="1">
          <mxGeometry x="310" y="200" width="40" height="40" as="geometry" />
        </mxCell>
        <mxCell id="qOO70KsoDbuKheBEqoZG-248" style="edgeStyle=orthogonalEdgeStyle;rounded=1;orthogonalLoop=1;jettySize=auto;html=1;exitX=0;exitY=1;exitDx=0;exitDy=0;entryX=0;entryY=0.5;entryDx=0;entryDy=0;fontFamily=Verdana;fontSize=14;fontColor=#9933FF;strokeColor=#A10627;" parent="1" source="qOO70KsoDbuKheBEqoZG-16" target="qOO70KsoDbuKheBEqoZG-140" edge="1">
          <mxGeometry relative="1" as="geometry">
            <Array as="points">
              <mxPoint x="120" y="280" />
              <mxPoint x="120" y="635" />
            </Array>
          </mxGeometry>
        </mxCell>
        <mxCell id="qOO70KsoDbuKheBEqoZG-16" value="Nav&lt;div&gt;-&amp;gt;&lt;/div&gt;" style="whiteSpace=wrap;html=1;aspect=fixed;rotation=15;fontSize=17;fontFamily=Verdana;fontStyle=1;fillColor=#a20025;strokeColor=#6F0000;fontColor=#ffffff;rounded=1;" parent="1" vertex="1">
          <mxGeometry x="290" y="246" width="40" height="40" as="geometry" />
        </mxCell>
        <mxCell id="qOO70KsoDbuKheBEqoZG-17" value="&lt;span style=&quot;font-family: &amp;quot;segoe ui emoji&amp;quot;, &amp;quot;apple color emoji&amp;quot;, &amp;quot;noto color emoji&amp;quot;; font-size: 22px;&quot;&gt;⌫&lt;/span&gt;" style="whiteSpace=wrap;html=1;aspect=fixed;rotation=30;fontSize=30;fontFamily=Verdana;fontStyle=1;fontColor=#AFB9C7;fillColor=#383E47;rounded=1;" parent="1" vertex="1">
          <mxGeometry x="338" y="264" width="40" height="40" as="geometry" />
        </mxCell>
        <mxCell id="qOO70KsoDbuKheBEqoZG-18" value="Y" style="whiteSpace=wrap;html=1;aspect=fixed;fontSize=17;fontFamily=Verdana;fontStyle=1;fontColor=#AFB9C7;fillColor=#383E47;rounded=1;" parent="1" vertex="1">
          <mxGeometry x="478" y="120" width="40" height="40" as="geometry" />
        </mxCell>
        <mxCell id="qOO70KsoDbuKheBEqoZG-19" value="U" style="whiteSpace=wrap;html=1;aspect=fixed;fontSize=17;fontFamily=Verdana;fontStyle=1;fontColor=#AFB9C7;fillColor=#383E47;rounded=1;" parent="1" vertex="1">
          <mxGeometry x="518" y="112" width="40" height="40" as="geometry" />
        </mxCell>
        <mxCell id="qOO70KsoDbuKheBEqoZG-20" value="I" style="whiteSpace=wrap;html=1;aspect=fixed;fontSize=17;fontFamily=Verdana;fontStyle=1;fontColor=#AFB9C7;fillColor=#383E47;rounded=1;" parent="1" vertex="1">
          <mxGeometry x="558" y="97" width="40" height="40" as="geometry" />
        </mxCell>
        <mxCell id="qOO70KsoDbuKheBEqoZG-21" value="O" style="whiteSpace=wrap;html=1;aspect=fixed;fontSize=17;fontFamily=Verdana;fontStyle=1;fontColor=#AFB9C7;fillColor=#383E47;rounded=1;" parent="1" vertex="1">
          <mxGeometry x="598" y="112" width="40" height="40" as="geometry" />
        </mxCell>
        <mxCell id="qOO70KsoDbuKheBEqoZG-22" value="P" style="whiteSpace=wrap;html=1;aspect=fixed;fontSize=17;fontFamily=Verdana;fontStyle=1;fontColor=#AFB9C7;fillColor=#383E47;rounded=1;" parent="1" vertex="1">
          <mxGeometry x="638" y="137" width="40" height="40" as="geometry" />
        </mxCell>
        <mxCell id="qOO70KsoDbuKheBEqoZG-23" value="H" style="whiteSpace=wrap;html=1;aspect=fixed;fontSize=17;fontFamily=Verdana;fontStyle=1;fontColor=#AFB9C7;fillColor=#383E47;rounded=1;" parent="1" vertex="1">
          <mxGeometry x="478" y="160" width="40" height="40" as="geometry" />
        </mxCell>
        <mxCell id="qOO70KsoDbuKheBEqoZG-24" value="J" style="whiteSpace=wrap;html=1;aspect=fixed;fontSize=17;fontFamily=Verdana;fontStyle=1;fontColor=#AFB9C7;fillColor=#383E47;rounded=1;" parent="1" vertex="1">
          <mxGeometry x="518" y="152" width="40" height="40" as="geometry" />
        </mxCell>
        <mxCell id="qOO70KsoDbuKheBEqoZG-25" value="K" style="whiteSpace=wrap;html=1;aspect=fixed;fontSize=17;fontFamily=Verdana;fontStyle=1;fontColor=#AFB9C7;fillColor=#383E47;rounded=1;" parent="1" vertex="1">
          <mxGeometry x="558" y="137" width="40" height="40" as="geometry" />
        </mxCell>
        <mxCell id="qOO70KsoDbuKheBEqoZG-26" value="L" style="whiteSpace=wrap;html=1;aspect=fixed;fontSize=17;fontFamily=Verdana;fontStyle=1;fontColor=#AFB9C7;fillColor=#383E47;rounded=1;" parent="1" vertex="1">
          <mxGeometry x="598" y="152" width="40" height="40" as="geometry" />
        </mxCell>
        <mxCell id="qOO70KsoDbuKheBEqoZG-27" value="( &lt;sup&gt;_&lt;/sup&gt;" style="whiteSpace=wrap;html=1;aspect=fixed;fontSize=17;fontFamily=Verdana;fontStyle=1;fontColor=#AFB9C7;fillColor=#383E47;rounded=1;" parent="1" vertex="1">
          <mxGeometry x="638" y="177" width="40" height="40" as="geometry" />
        </mxCell>
        <mxCell id="qOO70KsoDbuKheBEqoZG-28" value="N" style="whiteSpace=wrap;html=1;aspect=fixed;fontSize=17;fontFamily=Verdana;fontStyle=1;fontColor=#AFB9C7;fillColor=#383E47;rounded=1;" parent="1" vertex="1">
          <mxGeometry x="478" y="200" width="40" height="40" as="geometry" />
        </mxCell>
        <mxCell id="qOO70KsoDbuKheBEqoZG-29" value="M" style="whiteSpace=wrap;html=1;aspect=fixed;fontSize=17;fontFamily=Verdana;fontStyle=1;fontColor=#AFB9C7;fillColor=#383E47;rounded=1;" parent="1" vertex="1">
          <mxGeometry x="518" y="192" width="40" height="40" as="geometry" />
        </mxCell>
        <mxCell id="qOO70KsoDbuKheBEqoZG-30" value=", &lt;sup&gt;&#39;&lt;/sup&gt;" style="whiteSpace=wrap;html=1;aspect=fixed;fontSize=17;fontFamily=Verdana;fontStyle=1;fontColor=#AFB9C7;fillColor=#383E47;rounded=1;" parent="1" vertex="1">
          <mxGeometry x="558" y="177" width="40" height="40" as="geometry" />
        </mxCell>
        <mxCell id="qOO70KsoDbuKheBEqoZG-31" value=". &lt;span style=&quot;font-size: 14.1667px;&quot;&gt;&quot;&lt;/span&gt;" style="whiteSpace=wrap;html=1;aspect=fixed;fontSize=17;fontFamily=Verdana;fontStyle=1;fontColor=#AFB9C7;fillColor=#383E47;rounded=1;" parent="1" vertex="1">
          <mxGeometry x="598" y="192" width="40" height="40" as="geometry" />
        </mxCell>
        <mxCell id="qOO70KsoDbuKheBEqoZG-32" value="; &lt;sup&gt;:&lt;/sup&gt;" style="whiteSpace=wrap;html=1;aspect=fixed;fontSize=17;fontFamily=Verdana;fontStyle=1;fontColor=#AFB9C7;fillColor=#383E47;rounded=1;" parent="1" vertex="1">
          <mxGeometry x="638" y="217" width="40" height="40" as="geometry" />
        </mxCell>
        <mxCell id="qOO70KsoDbuKheBEqoZG-245" style="edgeStyle=orthogonalEdgeStyle;rounded=1;orthogonalLoop=1;jettySize=auto;html=1;exitX=0.5;exitY=1;exitDx=0;exitDy=0;entryX=0;entryY=0.5;entryDx=0;entryDy=0;fontFamily=Verdana;fontSize=14;fontColor=#6906F9;strokeColor=#7F00FF;" parent="1" source="qOO70KsoDbuKheBEqoZG-33" target="qOO70KsoDbuKheBEqoZG-145" edge="1">
          <mxGeometry relative="1" as="geometry" />
        </mxCell>
        <mxCell id="qOO70KsoDbuKheBEqoZG-33" value="._." style="whiteSpace=wrap;html=1;aspect=fixed;rotation=-30;fontSize=17;fontFamily=Verdana;fontStyle=1;fontColor=#AFB9C7;fillColor=#383E47;rounded=1;" parent="1" vertex="1">
          <mxGeometry x="450" y="264" width="40" height="40" as="geometry" />
        </mxCell>
        <mxCell id="qOO70KsoDbuKheBEqoZG-246" style="edgeStyle=orthogonalEdgeStyle;rounded=1;orthogonalLoop=1;jettySize=auto;html=1;exitX=0.5;exitY=1;exitDx=0;exitDy=0;entryX=0;entryY=0.5;entryDx=0;entryDy=0;fontFamily=Verdana;fontSize=14;fontColor=#6906F9;strokeColor=#7F00FF;" parent="1" source="qOO70KsoDbuKheBEqoZG-34" target="qOO70KsoDbuKheBEqoZG-145" edge="1">
          <mxGeometry relative="1" as="geometry" />
        </mxCell>
        <mxCell id="qOO70KsoDbuKheBEqoZG-34" value="&lt;div style=&quot;line-height: 60%;&quot;&gt;Sym&lt;br&gt;&lt;div&gt;&lt;span style=&quot;font-family: &amp;quot;segoe ui emoji&amp;quot;, &amp;quot;apple color emoji&amp;quot;, &amp;quot;noto color emoji&amp;quot;; font-size: 32px; font-weight: 400; line-height: 60%;&quot;&gt;&lt;font style=&quot;color: rgb(244, 244, 244);&quot;&gt;↵&lt;/font&gt;&lt;/span&gt;&lt;/div&gt;&lt;/div&gt;" style="whiteSpace=wrap;html=1;aspect=fixed;rotation=-15;fontSize=17;fontFamily=Verdana;fontStyle=1;fillColor=#1ba1e2;strokeColor=#006EAF;fontColor=#ffffff;rounded=1;" parent="1" vertex="1">
          <mxGeometry x="498" y="246" width="40" height="40" as="geometry" />
        </mxCell>
        <mxCell id="qOO70KsoDbuKheBEqoZG-35" value="&lt;b&gt;Base&lt;/b&gt;" style="rounded=0;whiteSpace=wrap;html=1;fontFamily=Verdana;fontSize=17;fontColor=#AFB9C7;fillColor=#383E47;" parent="1" vertex="1">
          <mxGeometry x="308.5" y="67" width="210" height="30" as="geometry" />
        </mxCell>
        <mxCell id="qOO70KsoDbuKheBEqoZG-36" value="&amp;amp;" style="whiteSpace=wrap;html=1;aspect=fixed;fontSize=17;fontFamily=Verdana;fontStyle=1;fontColor=#AFB9C7;fillColor=#383E47;rounded=1;" parent="1" vertex="1">
          <mxGeometry x="150" y="418" width="40" height="40" as="geometry" />
        </mxCell>
        <mxCell id="qOO70KsoDbuKheBEqoZG-37" value="|" style="whiteSpace=wrap;html=1;aspect=fixed;fontSize=17;fontFamily=Verdana;fontStyle=1;fontColor=#AFB9C7;fillColor=#383E47;rounded=1;" parent="1" vertex="1">
          <mxGeometry x="190" y="393" width="40" height="40" as="geometry" />
        </mxCell>
        <mxCell id="qOO70KsoDbuKheBEqoZG-38" value="]" style="whiteSpace=wrap;html=1;aspect=fixed;fontSize=17;fontFamily=Verdana;fontStyle=1;fontColor=#AFB9C7;fillColor=#383E47;rounded=1;" parent="1" vertex="1">
          <mxGeometry x="230" y="378" width="40" height="40" as="geometry" />
        </mxCell>
        <mxCell id="qOO70KsoDbuKheBEqoZG-39" value="}" style="whiteSpace=wrap;html=1;aspect=fixed;fontSize=17;fontFamily=Verdana;fontStyle=1;fontColor=#AFB9C7;fillColor=#383E47;rounded=1;" parent="1" vertex="1">
          <mxGeometry x="270" y="393" width="40" height="40" as="geometry" />
        </mxCell>
        <mxCell id="qOO70KsoDbuKheBEqoZG-40" value="$" style="whiteSpace=wrap;html=1;aspect=fixed;fontSize=17;fontFamily=Verdana;fontStyle=1;fontColor=#AFB9C7;fillColor=#383E47;rounded=1;" parent="1" vertex="1">
          <mxGeometry x="310" y="401" width="40" height="40" as="geometry" />
        </mxCell>
        <mxCell id="qOO70KsoDbuKheBEqoZG-41" value="&quot; &lt;sup&gt;`&lt;/sup&gt;" style="whiteSpace=wrap;html=1;aspect=fixed;fontSize=17;fontFamily=Verdana;fontStyle=1;fontColor=#AFB9C7;fillColor=#383E47;rounded=1;" parent="1" vertex="1">
          <mxGeometry x="150" y="458" width="40" height="40" as="geometry" />
        </mxCell>
        <mxCell id="qOO70KsoDbuKheBEqoZG-42" value="/^\" style="whiteSpace=wrap;html=1;aspect=fixed;fontSize=17;fontFamily=Verdana;fontStyle=1;fontColor=#AFB9C7;fillColor=#383E47;rounded=1;" parent="1" vertex="1">
          <mxGeometry x="190" y="433" width="40" height="40" as="geometry" />
        </mxCell>
        <mxCell id="qOO70KsoDbuKheBEqoZG-43" value="[" style="whiteSpace=wrap;html=1;aspect=fixed;fontSize=17;fontFamily=Verdana;fontStyle=1;fontColor=#AFB9C7;fillColor=#383E47;rounded=1;" parent="1" vertex="1">
          <mxGeometry x="230" y="418" width="40" height="40" as="geometry" />
        </mxCell>
        <mxCell id="qOO70KsoDbuKheBEqoZG-44" value="{" style="whiteSpace=wrap;html=1;aspect=fixed;fontSize=17;fontFamily=Verdana;fontStyle=1;fontColor=#AFB9C7;fillColor=#383E47;rounded=1;" parent="1" vertex="1">
          <mxGeometry x="270" y="433" width="40" height="40" as="geometry" />
        </mxCell>
        <mxCell id="qOO70KsoDbuKheBEqoZG-45" value="&amp;lt; &lt;sup&gt;&amp;gt;&lt;/sup&gt;" style="whiteSpace=wrap;html=1;aspect=fixed;fontSize=17;fontFamily=Verdana;fontStyle=1;fontColor=#AFB9C7;fillColor=#383E47;rounded=1;" parent="1" vertex="1">
          <mxGeometry x="310" y="441" width="40" height="40" as="geometry" />
        </mxCell>
        <mxCell id="qOO70KsoDbuKheBEqoZG-46" value="@" style="whiteSpace=wrap;html=1;aspect=fixed;fontSize=17;fontFamily=Verdana;fontStyle=1;fontColor=#AFB9C7;fillColor=#383E47;rounded=1;" parent="1" vertex="1">
          <mxGeometry x="150" y="498" width="40" height="40" as="geometry" />
        </mxCell>
        <mxCell id="qOO70KsoDbuKheBEqoZG-47" value="#" style="whiteSpace=wrap;html=1;aspect=fixed;fontSize=17;fontFamily=Verdana;fontStyle=1;fontColor=#AFB9C7;fillColor=#383E47;rounded=1;" parent="1" vertex="1">
          <mxGeometry x="190" y="473" width="40" height="40" as="geometry" />
        </mxCell>
        <mxCell id="qOO70KsoDbuKheBEqoZG-48" value="!" style="whiteSpace=wrap;html=1;aspect=fixed;fontSize=17;fontFamily=Verdana;fontStyle=1;fontColor=#AFB9C7;fillColor=#383E47;rounded=1;" parent="1" vertex="1">
          <mxGeometry x="230" y="458" width="40" height="40" as="geometry" />
        </mxCell>
        <mxCell id="qOO70KsoDbuKheBEqoZG-49" value="?" style="whiteSpace=wrap;html=1;aspect=fixed;fontSize=17;fontFamily=Verdana;fontStyle=1;fontColor=#AFB9C7;fillColor=#383E47;rounded=1;" parent="1" vertex="1">
          <mxGeometry x="270" y="473" width="40" height="40" as="geometry" />
        </mxCell>
        <mxCell id="qOO70KsoDbuKheBEqoZG-50" value="\ &lt;sup&gt;|&lt;/sup&gt;" style="whiteSpace=wrap;html=1;aspect=fixed;fontSize=17;fontFamily=Verdana;fontStyle=1;fontColor=#AFB9C7;fillColor=#383E47;rounded=1;" parent="1" vertex="1">
          <mxGeometry x="310" y="481" width="40" height="40" as="geometry" />
        </mxCell>
        <mxCell id="qOO70KsoDbuKheBEqoZG-251" style="edgeStyle=orthogonalEdgeStyle;rounded=1;orthogonalLoop=1;jettySize=auto;html=1;exitX=0;exitY=1;exitDx=0;exitDy=0;entryX=0;entryY=0.5;entryDx=0;entryDy=0;fontFamily=Verdana;fontSize=14;fontColor=#61A92F;strokeColor=#61A92F;" parent="1" source="qOO70KsoDbuKheBEqoZG-51" target="qOO70KsoDbuKheBEqoZG-187" edge="1">
          <mxGeometry relative="1" as="geometry">
            <Array as="points">
              <mxPoint x="70" y="561" />
              <mxPoint x="70" y="915" />
            </Array>
          </mxGeometry>
        </mxCell>
        <mxCell id="qOO70KsoDbuKheBEqoZG-51" value="Misc" style="whiteSpace=wrap;html=1;aspect=fixed;rotation=15;fontSize=17;fontFamily=Verdana;fontStyle=1;fontColor=#ffffff;fillColor=#60a917;strokeColor=#2D7600;rounded=1;" parent="1" vertex="1">
          <mxGeometry x="290" y="527" width="40" height="40" as="geometry" />
        </mxCell>
        <mxCell id="qOO70KsoDbuKheBEqoZG-53" value="+" style="whiteSpace=wrap;html=1;aspect=fixed;fontSize=17;fontFamily=Verdana;fontStyle=1;fontColor=#AFB9C7;fillColor=#383E47;rounded=1;" parent="1" vertex="1">
          <mxGeometry x="478" y="401" width="40" height="40" as="geometry" />
        </mxCell>
        <mxCell id="qOO70KsoDbuKheBEqoZG-54" value="7 &lt;sup&gt;&amp;amp;&lt;/sup&gt;" style="whiteSpace=wrap;html=1;aspect=fixed;fontSize=17;fontFamily=Verdana;fontStyle=1;fontColor=#AFB9C7;fillColor=#383E47;rounded=1;" parent="1" vertex="1">
          <mxGeometry x="518" y="393" width="40" height="40" as="geometry" />
        </mxCell>
        <mxCell id="qOO70KsoDbuKheBEqoZG-55" value="8 &lt;sup&gt;*&lt;/sup&gt;" style="whiteSpace=wrap;html=1;aspect=fixed;fontSize=17;fontFamily=Verdana;fontStyle=1;fontColor=#AFB9C7;fillColor=#383E47;rounded=1;" parent="1" vertex="1">
          <mxGeometry x="558" y="378" width="40" height="40" as="geometry" />
        </mxCell>
        <mxCell id="qOO70KsoDbuKheBEqoZG-56" value="9 &lt;sup&gt;(&lt;/sup&gt;" style="whiteSpace=wrap;html=1;aspect=fixed;fontSize=17;fontFamily=Verdana;fontStyle=1;fontColor=#AFB9C7;fillColor=#383E47;rounded=1;" parent="1" vertex="1">
          <mxGeometry x="598" y="393" width="40" height="40" as="geometry" />
        </mxCell>
        <mxCell id="qOO70KsoDbuKheBEqoZG-57" value="* &lt;sup&gt;^&lt;/sup&gt;" style="whiteSpace=wrap;html=1;aspect=fixed;fontSize=17;fontFamily=Verdana;fontStyle=1;fontColor=#AFB9C7;fillColor=#383E47;rounded=1;" parent="1" vertex="1">
          <mxGeometry x="638" y="418" width="40" height="40" as="geometry" />
        </mxCell>
        <mxCell id="qOO70KsoDbuKheBEqoZG-58" value="= &lt;sup&gt;~&lt;/sup&gt;" style="whiteSpace=wrap;html=1;aspect=fixed;fontSize=17;fontFamily=Verdana;fontStyle=1;fontColor=#AFB9C7;fillColor=#383E47;rounded=1;" parent="1" vertex="1">
          <mxGeometry x="478" y="441" width="40" height="40" as="geometry" />
        </mxCell>
        <mxCell id="qOO70KsoDbuKheBEqoZG-59" value="4 &lt;sup&gt;$&lt;/sup&gt;" style="whiteSpace=wrap;html=1;aspect=fixed;fontSize=17;fontFamily=Verdana;fontStyle=1;fontColor=#AFB9C7;fillColor=#383E47;rounded=1;" parent="1" vertex="1">
          <mxGeometry x="518" y="433" width="40" height="40" as="geometry" />
        </mxCell>
        <mxCell id="qOO70KsoDbuKheBEqoZG-60" value="5 &lt;sup&gt;%&lt;/sup&gt;" style="whiteSpace=wrap;html=1;aspect=fixed;fontSize=17;fontFamily=Verdana;fontStyle=1;fontColor=#AFB9C7;fillColor=#383E47;rounded=1;" parent="1" vertex="1">
          <mxGeometry x="558" y="418" width="40" height="40" as="geometry" />
        </mxCell>
        <mxCell id="qOO70KsoDbuKheBEqoZG-61" value="6 &lt;sup&gt;^&lt;/sup&gt;" style="whiteSpace=wrap;html=1;aspect=fixed;fontSize=17;fontFamily=Verdana;fontStyle=1;fontColor=#AFB9C7;fillColor=#383E47;rounded=1;" parent="1" vertex="1">
          <mxGeometry x="598" y="433" width="40" height="40" as="geometry" />
        </mxCell>
        <mxCell id="qOO70KsoDbuKheBEqoZG-62" value="0 &lt;sup&gt;)&lt;/sup&gt;" style="whiteSpace=wrap;html=1;aspect=fixed;fontSize=17;fontFamily=Verdana;fontStyle=1;fontColor=#AFB9C7;fillColor=#383E47;rounded=1;" parent="1" vertex="1">
          <mxGeometry x="638" y="458" width="40" height="40" as="geometry" />
        </mxCell>
        <mxCell id="qOO70KsoDbuKheBEqoZG-63" value="- &lt;sup&gt;_&lt;/sup&gt;" style="whiteSpace=wrap;html=1;aspect=fixed;fontSize=17;fontFamily=Verdana;fontStyle=1;fontColor=#AFB9C7;fillColor=#383E47;rounded=1;" parent="1" vertex="1">
          <mxGeometry x="478" y="481" width="40" height="40" as="geometry" />
        </mxCell>
        <mxCell id="qOO70KsoDbuKheBEqoZG-64" value="1 &lt;sup&gt;!&lt;/sup&gt;" style="whiteSpace=wrap;html=1;aspect=fixed;fontSize=17;fontFamily=Verdana;fontStyle=1;fontColor=#AFB9C7;fillColor=#383E47;rounded=1;" parent="1" vertex="1">
          <mxGeometry x="518" y="473" width="40" height="40" as="geometry" />
        </mxCell>
        <mxCell id="qOO70KsoDbuKheBEqoZG-65" value="2 &lt;sup&gt;@&lt;/sup&gt;" style="whiteSpace=wrap;html=1;aspect=fixed;fontSize=17;fontFamily=Verdana;fontStyle=1;fontColor=#AFB9C7;fillColor=#383E47;rounded=1;" parent="1" vertex="1">
          <mxGeometry x="558" y="458" width="40" height="40" as="geometry" />
        </mxCell>
        <mxCell id="qOO70KsoDbuKheBEqoZG-66" value="3 &lt;sup&gt;#&lt;/sup&gt;" style="whiteSpace=wrap;html=1;aspect=fixed;fontSize=17;fontFamily=Verdana;fontStyle=1;fontColor=#AFB9C7;fillColor=#383E47;rounded=1;" parent="1" vertex="1">
          <mxGeometry x="598" y="473" width="40" height="40" as="geometry" />
        </mxCell>
        <mxCell id="qOO70KsoDbuKheBEqoZG-67" value="/ &lt;sup&gt;%&lt;/sup&gt;" style="whiteSpace=wrap;html=1;aspect=fixed;fontSize=17;fontFamily=Verdana;fontStyle=1;fontColor=#AFB9C7;fillColor=#383E47;rounded=1;" parent="1" vertex="1">
          <mxGeometry x="638" y="498" width="40" height="40" as="geometry" />
        </mxCell>
        <mxCell id="qOO70KsoDbuKheBEqoZG-68" value="._." style="whiteSpace=wrap;html=1;aspect=fixed;rotation=-30;fontSize=17;fontFamily=Verdana;fontStyle=1;fontColor=#AFB9C7;fillColor=#383E47;rounded=1;" parent="1" vertex="1">
          <mxGeometry x="450" y="545" width="40" height="40" as="geometry" />
        </mxCell>
        <mxCell id="qOO70KsoDbuKheBEqoZG-69" value="" style="whiteSpace=wrap;html=1;aspect=fixed;rotation=-15;fontSize=17;fontFamily=Verdana;fontStyle=1;fontColor=#333333;fillColor=none;strokeColor=#666666;shadow=0;sketch=0;rounded=1;glass=0;dashed=1;" parent="1" vertex="1">
          <mxGeometry x="498" y="527" width="40" height="40" as="geometry" />
        </mxCell>
        <mxCell id="qOO70KsoDbuKheBEqoZG-70" value="&lt;b&gt;Sym&lt;/b&gt;" style="rounded=0;whiteSpace=wrap;html=1;fontFamily=Verdana;fontSize=17;fillColor=#1ba1e2;strokeColor=#006EAF;fontStyle=0;fontColor=#ffffff;" parent="1" vertex="1">
          <mxGeometry x="308.5" y="348" width="210" height="30" as="geometry" />
        </mxCell>
        <mxCell id="qOO70KsoDbuKheBEqoZG-106" value="Esc" style="whiteSpace=wrap;html=1;aspect=fixed;fontSize=17;fontFamily=Verdana;fontStyle=1;fontColor=#AFB9C7;fillColor=#383E47;rounded=1;" parent="1" vertex="1">
          <mxGeometry x="150" y="690" width="40" height="40" as="geometry" />
        </mxCell>
        <mxCell id="qOO70KsoDbuKheBEqoZG-107" value="&lt;span style=&quot;font-family: &amp;quot;segoe ui emoji&amp;quot;, &amp;quot;apple color emoji&amp;quot;, &amp;quot;noto color emoji&amp;quot;; font-size: 26px; font-weight: 400;&quot;&gt;⌦&lt;/span&gt;" style="whiteSpace=wrap;html=1;aspect=fixed;fontSize=17;fontFamily=Verdana;fontStyle=1;fontColor=#AFB9C7;fillColor=#383E47;rounded=1;" parent="1" vertex="1">
          <mxGeometry x="190" y="665" width="40" height="40" as="geometry" />
        </mxCell>
        <mxCell id="qOO70KsoDbuKheBEqoZG-108" value="&lt;div style=&quot;line-height: 70%;&quot;&gt;&lt;span style=&quot;font-family: &amp;quot;segoe ui emoji&amp;quot;, &amp;quot;apple color emoji&amp;quot;, &amp;quot;noto color emoji&amp;quot;; font-size: 32px;&quot;&gt;⇪&lt;/span&gt;&lt;/div&gt;" style="whiteSpace=wrap;html=1;aspect=fixed;fontSize=17;fontFamily=Verdana;fontStyle=1;fontColor=#AFB9C7;fillColor=#383E47;rounded=1;" parent="1" vertex="1">
          <mxGeometry x="230" y="650" width="40" height="40" as="geometry" />
        </mxCell>
        <mxCell id="qOO70KsoDbuKheBEqoZG-109" value="&lt;div style=&quot;line-height: 100%;&quot;&gt;&lt;font style=&quot;font-size: 13px;&quot;&gt;Prnt&lt;/font&gt;&lt;/div&gt;&lt;div style=&quot;line-height: 100%;&quot;&gt;&lt;font style=&quot;font-size: 13px;&quot;&gt;Scrn&lt;/font&gt;&lt;/div&gt;" style="whiteSpace=wrap;html=1;aspect=fixed;fontSize=17;fontFamily=Verdana;fontStyle=1;fontColor=#AFB9C7;fillColor=#383E47;rounded=1;" parent="1" vertex="1">
          <mxGeometry x="270" y="665" width="40" height="40" as="geometry" />
        </mxCell>
        <mxCell id="qOO70KsoDbuKheBEqoZG-110" value="Ins" style="whiteSpace=wrap;html=1;aspect=fixed;fontSize=17;fontFamily=Verdana;fontStyle=1;fontColor=#AFB9C7;fillColor=#383E47;rounded=1;" parent="1" vertex="1">
          <mxGeometry x="310" y="673" width="40" height="40" as="geometry" />
        </mxCell>
        <mxCell id="qOO70KsoDbuKheBEqoZG-111" value="&lt;span style=&quot;font-family: &amp;quot;segoe ui emoji&amp;quot;, &amp;quot;apple color emoji&amp;quot;, &amp;quot;noto color emoji&amp;quot;; font-size: 28px;&quot;&gt;❖&lt;/span&gt;" style="whiteSpace=wrap;html=1;aspect=fixed;fontSize=17;fontFamily=Verdana;fontStyle=1;fillColor=#ffb86c;strokeColor=#d79b00;fontColor=#302316;rounded=1;" parent="1" vertex="1">
          <mxGeometry x="150" y="730" width="40" height="40" as="geometry" />
        </mxCell>
        <mxCell id="qOO70KsoDbuKheBEqoZG-112" value="&lt;span style=&quot;font-family: &amp;quot;segoe ui emoji&amp;quot;, &amp;quot;apple color emoji&amp;quot;, &amp;quot;noto color emoji&amp;quot;;&quot;&gt;&lt;font style=&quot;font-size: 18px;&quot;&gt;LCtrl&lt;/font&gt;&lt;/span&gt;" style="whiteSpace=wrap;html=1;aspect=fixed;fontSize=17;fontFamily=Verdana;fontStyle=1;fillColor=#ffb86c;strokeColor=#d79b00;fontColor=#302316;rounded=1;" parent="1" vertex="1">
          <mxGeometry x="190" y="705" width="40" height="40" as="geometry" />
        </mxCell>
        <mxCell id="qOO70KsoDbuKheBEqoZG-113" value="&lt;span style=&quot;font-family: &amp;quot;segoe ui emoji&amp;quot;, &amp;quot;apple color emoji&amp;quot;, &amp;quot;noto color emoji&amp;quot;; font-size: 28px;&quot;&gt;⇧&lt;/span&gt;" style="whiteSpace=wrap;html=1;aspect=fixed;fontSize=17;fontFamily=Verdana;fontStyle=1;fillColor=#ffb86c;strokeColor=#d79b00;fontColor=#302316;rounded=1;" parent="1" vertex="1">
          <mxGeometry x="230" y="690" width="40" height="40" as="geometry" />
        </mxCell>
        <mxCell id="qOO70KsoDbuKheBEqoZG-114" value="&lt;span style=&quot;font-family: &amp;quot;segoe ui emoji&amp;quot;, &amp;quot;apple color emoji&amp;quot;, &amp;quot;noto color emoji&amp;quot;;&quot;&gt;&lt;font style=&quot;font-size: 20px;&quot;&gt;LAlt&lt;/font&gt;&lt;/span&gt;" style="whiteSpace=wrap;html=1;aspect=fixed;fontSize=17;fontFamily=Verdana;fontStyle=1;fillColor=#ffb86c;strokeColor=#d79b00;fontColor=#302316;rounded=1;" parent="1" vertex="1">
          <mxGeometry x="270" y="705" width="40" height="40" as="geometry" />
        </mxCell>
        <mxCell id="qOO70KsoDbuKheBEqoZG-115" value="" style="whiteSpace=wrap;html=1;aspect=fixed;fontSize=17;fontFamily=Verdana;fontStyle=1;fillColor=#383E47;strokeColor=#FCFCFC;fontColor=#302316;rounded=1;" parent="1" vertex="1">
          <mxGeometry x="310" y="713" width="40" height="40" as="geometry" />
        </mxCell>
        <mxCell id="qOO70KsoDbuKheBEqoZG-116" value="" style="whiteSpace=wrap;html=1;aspect=fixed;fontSize=17;fontFamily=Verdana;fontStyle=1;fontColor=#AFB9C7;fillColor=#383E47;rounded=1;" parent="1" vertex="1">
          <mxGeometry x="150" y="770" width="40" height="40" as="geometry" />
        </mxCell>
        <mxCell id="qOO70KsoDbuKheBEqoZG-117" value="" style="whiteSpace=wrap;html=1;aspect=fixed;fontSize=17;fontFamily=Verdana;fontStyle=1;fontColor=#AFB9C7;fillColor=#383E47;rounded=1;" parent="1" vertex="1">
          <mxGeometry x="190" y="745" width="40" height="40" as="geometry" />
        </mxCell>
        <mxCell id="qOO70KsoDbuKheBEqoZG-118" value="" style="whiteSpace=wrap;html=1;aspect=fixed;fontSize=17;fontFamily=Verdana;fontStyle=1;fontColor=#AFB9C7;fillColor=#383E47;rounded=1;" parent="1" vertex="1">
          <mxGeometry x="230" y="730" width="40" height="40" as="geometry" />
        </mxCell>
        <mxCell id="qOO70KsoDbuKheBEqoZG-119" value="" style="whiteSpace=wrap;html=1;aspect=fixed;fontSize=17;fontFamily=Verdana;fontStyle=1;fontColor=#AFB9C7;fillColor=#383E47;rounded=1;" parent="1" vertex="1">
          <mxGeometry x="270" y="745" width="40" height="40" as="geometry" />
        </mxCell>
        <mxCell id="qOO70KsoDbuKheBEqoZG-120" value="" style="whiteSpace=wrap;html=1;aspect=fixed;fontSize=17;fontFamily=Verdana;fontStyle=1;fontColor=#AFB9C7;fillColor=#383E47;rounded=1;" parent="1" vertex="1">
          <mxGeometry x="310" y="753" width="40" height="40" as="geometry" />
        </mxCell>
        <mxCell id="qOO70KsoDbuKheBEqoZG-121" value="" style="whiteSpace=wrap;html=1;aspect=fixed;rotation=15;fontSize=17;fontFamily=Verdana;fontStyle=1;fontColor=#333333;fillColor=none;strokeColor=#666666;rounded=1;shadow=0;dashed=1;glass=0;sketch=0;" parent="1" vertex="1">
          <mxGeometry x="290" y="799" width="40" height="40" as="geometry" />
        </mxCell>
        <mxCell id="qOO70KsoDbuKheBEqoZG-122" value="&lt;span style=&quot;font-family: &amp;quot;segoe ui emoji&amp;quot;, &amp;quot;apple color emoji&amp;quot;, &amp;quot;noto color emoji&amp;quot;; font-size: 22px;&quot;&gt;⌫&lt;/span&gt;" style="whiteSpace=wrap;html=1;aspect=fixed;rotation=30;fontSize=17;fontFamily=Verdana;fontStyle=1;fontColor=#AFB9C7;fillColor=#383E47;rounded=1;" parent="1" vertex="1">
          <mxGeometry x="338" y="817" width="40" height="40" as="geometry" />
        </mxCell>
        <mxCell id="qOO70KsoDbuKheBEqoZG-123" value="" style="whiteSpace=wrap;html=1;aspect=fixed;fontSize=14;fontFamily=Verdana;fontStyle=1;fontColor=#AFB9C7;fillColor=#383E47;rounded=1;" parent="1" vertex="1">
          <mxGeometry x="478" y="673" width="40" height="40" as="geometry" />
        </mxCell>
        <mxCell id="qOO70KsoDbuKheBEqoZG-124" value="Home" style="whiteSpace=wrap;html=1;aspect=fixed;fontSize=11;fontFamily=Verdana;fontStyle=1;fontColor=#AFB9C7;fillColor=#383E47;rounded=1;" parent="1" vertex="1">
          <mxGeometry x="518" y="665" width="40" height="40" as="geometry" />
        </mxCell>
        <mxCell id="qOO70KsoDbuKheBEqoZG-125" value="&lt;font style=&quot;font-size: 12px;&quot; face=&quot;segoe ui emoji, apple color emoji, noto color emoji&quot;&gt;Pg Up&lt;/font&gt;" style="whiteSpace=wrap;html=1;aspect=fixed;fontSize=17;fontFamily=Verdana;fontStyle=1;fontColor=#AFB9C7;fillColor=#383E47;rounded=1;" parent="1" vertex="1">
          <mxGeometry x="558" y="650" width="40" height="40" as="geometry" />
        </mxCell>
        <mxCell id="qOO70KsoDbuKheBEqoZG-126" value="Pg Dn" style="whiteSpace=wrap;html=1;aspect=fixed;fontSize=11;fontFamily=Verdana;fontStyle=1;fontColor=#AFB9C7;fillColor=#383E47;rounded=1;" parent="1" vertex="1">
          <mxGeometry x="598" y="665" width="40" height="40" as="geometry" />
        </mxCell>
        <mxCell id="qOO70KsoDbuKheBEqoZG-127" value="&lt;font style=&quot;font-size: 15px;&quot; face=&quot;segoe ui emoji, apple color emoji, noto color emoji&quot;&gt;End&lt;/font&gt;" style="whiteSpace=wrap;html=1;aspect=fixed;fontSize=17;fontFamily=Verdana;fontStyle=1;fontColor=#AFB9C7;fillColor=#383E47;rounded=1;" parent="1" vertex="1">
          <mxGeometry x="638" y="690" width="40" height="40" as="geometry" />
        </mxCell>
        <mxCell id="qOO70KsoDbuKheBEqoZG-128" value="&lt;font style=&quot;font-size: 17px;&quot;&gt;-&amp;gt;&lt;/font&gt;" style="whiteSpace=wrap;html=1;aspect=fixed;fontSize=14;fontFamily=Verdana;fontStyle=1;fontColor=#AFB9C7;fillColor=#383E47;rounded=1;" parent="1" vertex="1">
          <mxGeometry x="478" y="713" width="40" height="40" as="geometry" />
        </mxCell>
        <mxCell id="qOO70KsoDbuKheBEqoZG-129" value="&lt;span style=&quot;font-family: &amp;quot;segoe ui emoji&amp;quot;, &amp;quot;apple color emoji&amp;quot;, &amp;quot;noto color emoji&amp;quot;; font-size: 32px;&quot;&gt;←&lt;/span&gt;" style="whiteSpace=wrap;html=1;aspect=fixed;fontSize=17;fontFamily=Verdana;fontStyle=1;fontColor=#AFB9C7;fillColor=#383E47;rounded=1;" parent="1" vertex="1">
          <mxGeometry x="518" y="705" width="40" height="40" as="geometry" />
        </mxCell>
        <mxCell id="qOO70KsoDbuKheBEqoZG-130" value="&lt;span style=&quot;font-family: &amp;quot;segoe ui emoji&amp;quot;, &amp;quot;apple color emoji&amp;quot;, &amp;quot;noto color emoji&amp;quot;; font-size: 32px;&quot;&gt;↓&lt;/span&gt;" style="whiteSpace=wrap;html=1;aspect=fixed;fontSize=17;fontFamily=Verdana;fontStyle=1;fontColor=#AFB9C7;fillColor=#383E47;rounded=1;" parent="1" vertex="1">
          <mxGeometry x="558" y="690" width="40" height="40" as="geometry" />
        </mxCell>
        <mxCell id="qOO70KsoDbuKheBEqoZG-131" value="&lt;span style=&quot;font-family: &amp;quot;segoe ui emoji&amp;quot;, &amp;quot;apple color emoji&amp;quot;, &amp;quot;noto color emoji&amp;quot;; font-size: 32px;&quot;&gt;↑&lt;/span&gt;" style="whiteSpace=wrap;html=1;aspect=fixed;fontSize=17;fontFamily=Verdana;fontStyle=1;fontColor=#AFB9C7;fillColor=#383E47;rounded=1;" parent="1" vertex="1">
          <mxGeometry x="598" y="705" width="40" height="40" as="geometry" />
        </mxCell>
        <mxCell id="qOO70KsoDbuKheBEqoZG-132" value="&lt;span style=&quot;font-family: &amp;quot;segoe ui emoji&amp;quot;, &amp;quot;apple color emoji&amp;quot;, &amp;quot;noto color emoji&amp;quot;; font-size: 32px;&quot;&gt;→&lt;/span&gt;" style="whiteSpace=wrap;html=1;aspect=fixed;fontSize=17;fontFamily=Verdana;fontStyle=1;fontColor=#AFB9C7;fillColor=#383E47;rounded=1;" parent="1" vertex="1">
          <mxGeometry x="638" y="730" width="40" height="40" as="geometry" />
        </mxCell>
        <mxCell id="qOO70KsoDbuKheBEqoZG-133" value="&lt;font style=&quot;font-size: 12px;&quot;&gt;Play&lt;/font&gt;&lt;div style=&quot;font-size: 14px;&quot;&gt;&lt;font style=&quot;font-size: 12px;&quot;&gt;Pause&lt;/font&gt;&lt;/div&gt;" style="whiteSpace=wrap;html=1;aspect=fixed;fontSize=17;fontFamily=Verdana;fontStyle=1;fontColor=#AFB9C7;fillColor=#383E47;rounded=1;" parent="1" vertex="1">
          <mxGeometry x="478" y="753" width="40" height="40" as="geometry" />
        </mxCell>
        <mxCell id="qOO70KsoDbuKheBEqoZG-134" value="&lt;span style=&quot;font-family: &amp;quot;segoe ui emoji&amp;quot;, &amp;quot;apple color emoji&amp;quot;, &amp;quot;noto color emoji&amp;quot;;&quot;&gt;&lt;font style=&quot;font-size: 15px;&quot;&gt;Mute&lt;/font&gt;&lt;/span&gt;" style="whiteSpace=wrap;html=1;aspect=fixed;fontSize=17;fontFamily=Verdana;fontStyle=1;fontColor=#AFB9C7;fillColor=#383E47;rounded=1;" parent="1" vertex="1">
          <mxGeometry x="518" y="745" width="40" height="40" as="geometry" />
        </mxCell>
        <mxCell id="qOO70KsoDbuKheBEqoZG-135" value="&lt;font style=&quot;font-size: 13px;&quot;&gt;Vol Dn&lt;/font&gt;" style="whiteSpace=wrap;html=1;aspect=fixed;fontSize=17;fontFamily=Verdana;fontStyle=1;fontColor=#AFB9C7;fillColor=#383E47;rounded=1;" parent="1" vertex="1">
          <mxGeometry x="558" y="730" width="40" height="40" as="geometry" />
        </mxCell>
        <mxCell id="qOO70KsoDbuKheBEqoZG-136" value="&lt;font style=&quot;font-size: 14px;&quot;&gt;Vol Up&lt;/font&gt;" style="whiteSpace=wrap;html=1;aspect=fixed;fontSize=17;fontFamily=Verdana;fontStyle=1;fontColor=#AFB9C7;fillColor=#383E47;rounded=1;" parent="1" vertex="1">
          <mxGeometry x="598" y="745" width="40" height="40" as="geometry" />
        </mxCell>
        <mxCell id="qOO70KsoDbuKheBEqoZG-137" value="&lt;span style=&quot;font-family: &amp;quot;segoe ui emoji&amp;quot;, &amp;quot;apple color emoji&amp;quot;, &amp;quot;noto color emoji&amp;quot;; font-size: 32px; font-weight: 400;&quot;&gt;↵&lt;/span&gt;" style="whiteSpace=wrap;html=1;aspect=fixed;fontSize=17;fontFamily=Verdana;fontStyle=1;fontColor=#AFB9C7;fillColor=#383E47;rounded=1;" parent="1" vertex="1">
          <mxGeometry x="638" y="770" width="40" height="40" as="geometry" />
        </mxCell>
        <mxCell id="qOO70KsoDbuKheBEqoZG-138" value="&lt;span style=&quot;font-family: &amp;quot;segoe ui emoji&amp;quot;, &amp;quot;apple color emoji&amp;quot;, &amp;quot;noto color emoji&amp;quot;; font-size: 32px; font-weight: 400;&quot;&gt;↵&lt;/span&gt;" style="whiteSpace=wrap;html=1;aspect=fixed;rotation=-30;fontSize=17;fontFamily=Verdana;fontStyle=1;fontColor=#AFB9C7;fillColor=#383E47;rounded=1;" parent="1" vertex="1">
          <mxGeometry x="450" y="817" width="40" height="40" as="geometry" />
        </mxCell>
        <mxCell id="qOO70KsoDbuKheBEqoZG-253" style="edgeStyle=orthogonalEdgeStyle;rounded=1;orthogonalLoop=1;jettySize=auto;html=1;exitX=1;exitY=1;exitDx=0;exitDy=0;entryX=1;entryY=0.5;entryDx=0;entryDy=0;fontFamily=Verdana;fontSize=14;fontColor=#61A92F;strokeColor=#61A92F;" parent="1" source="qOO70KsoDbuKheBEqoZG-139" target="qOO70KsoDbuKheBEqoZG-187" edge="1">
          <mxGeometry relative="1" as="geometry" />
        </mxCell>
        <mxCell id="qOO70KsoDbuKheBEqoZG-139" value="&lt;font style=&quot;font-size: 15px;&quot;&gt;Misc&lt;/font&gt;" style="whiteSpace=wrap;html=1;aspect=fixed;rotation=-15;fontSize=17;fontFamily=Verdana;fontStyle=1;fontColor=#ffffff;fillColor=#60a917;strokeColor=#2D7600;rounded=1;" parent="1" vertex="1">
          <mxGeometry x="498" y="799" width="40" height="40" as="geometry" />
        </mxCell>
        <mxCell id="qOO70KsoDbuKheBEqoZG-140" value="Nav" style="rounded=0;whiteSpace=wrap;html=1;fontFamily=Verdana;fontSize=17;fontStyle=1;fillColor=#a20025;strokeColor=#6F0000;fontColor=#ffffff;" parent="1" vertex="1">
          <mxGeometry x="308.5" y="620" width="210" height="30" as="geometry" />
        </mxCell>
        <mxCell id="qOO70KsoDbuKheBEqoZG-249" style="edgeStyle=orthogonalEdgeStyle;rounded=1;orthogonalLoop=1;jettySize=auto;html=1;exitX=1;exitY=0.5;exitDx=0;exitDy=0;entryX=1;entryY=0.5;entryDx=0;entryDy=0;fontFamily=Verdana;fontSize=14;fontColor=#9933FF;strokeColor=#6906F9;" parent="1" source="qOO70KsoDbuKheBEqoZG-145" target="qOO70KsoDbuKheBEqoZG-230" edge="1">
          <mxGeometry relative="1" as="geometry">
            <Array as="points">
              <mxPoint x="730" y="310" />
              <mxPoint x="730" y="1515" />
            </Array>
          </mxGeometry>
        </mxCell>
        <mxCell id="qOO70KsoDbuKheBEqoZG-145" value="&lt;b&gt;Acc&lt;/b&gt;" style="whiteSpace=wrap;html=1;aspect=fixed;rounded=1;shadow=0;glass=0;sketch=0;fontFamily=Verdana;fontSize=17;fontColor=#ffffff;fillColor=#6a00ff;strokeColor=#3700CC;" parent="1" vertex="1">
          <mxGeometry x="620" y="290" width="40" height="40" as="geometry" />
        </mxCell>
        <mxCell id="qOO70KsoDbuKheBEqoZG-146" value="Combo" style="text;html=1;strokeColor=none;fillColor=none;align=center;verticalAlign=middle;whiteSpace=wrap;rounded=0;shadow=0;glass=0;sketch=0;fontFamily=Verdana;fontSize=13;fontColor=#6906F9;fontStyle=2" parent="1" vertex="1">
          <mxGeometry x="558" y="310" width="40" height="20" as="geometry" />
        </mxCell>
        <mxCell id="qOO70KsoDbuKheBEqoZG-153" value="F1" style="whiteSpace=wrap;html=1;aspect=fixed;fontSize=17;fontFamily=Verdana;fontStyle=1;fontColor=#AFB9C7;fillColor=#383E47;rounded=1;" parent="1" vertex="1">
          <mxGeometry x="150" y="970" width="40" height="40" as="geometry" />
        </mxCell>
        <mxCell id="qOO70KsoDbuKheBEqoZG-154" value="F2" style="whiteSpace=wrap;html=1;aspect=fixed;fontSize=17;fontFamily=Verdana;fontStyle=1;fontColor=#AFB9C7;fillColor=#383E47;rounded=1;" parent="1" vertex="1">
          <mxGeometry x="190" y="945" width="40" height="40" as="geometry" />
        </mxCell>
        <mxCell id="qOO70KsoDbuKheBEqoZG-155" value="F3" style="whiteSpace=wrap;html=1;aspect=fixed;fontSize=17;fontFamily=Verdana;fontStyle=1;fontColor=#AFB9C7;fillColor=#383E47;rounded=1;" parent="1" vertex="1">
          <mxGeometry x="230" y="930" width="40" height="40" as="geometry" />
        </mxCell>
        <mxCell id="qOO70KsoDbuKheBEqoZG-156" value="F4" style="whiteSpace=wrap;html=1;aspect=fixed;fontSize=17;fontFamily=Verdana;fontStyle=1;fontColor=#AFB9C7;fillColor=#383E47;rounded=1;" parent="1" vertex="1">
          <mxGeometry x="270" y="945" width="40" height="40" as="geometry" />
        </mxCell>
        <mxCell id="qOO70KsoDbuKheBEqoZG-157" value="&lt;span style=&quot;color: rgb(9, 14, 20); font-size: 14px;&quot;&gt;BT&lt;/span&gt;&lt;br style=&quot;color: rgb(9, 14, 20); font-size: 14px;&quot;&gt;&lt;span style=&quot;color: rgb(9, 14, 20); font-size: 14px;&quot;&gt;1&lt;/span&gt;" style="whiteSpace=wrap;html=1;aspect=fixed;fontSize=17;fontFamily=Verdana;fontStyle=1;fontColor=#AFB9C7;fillColor=#5C8CCA;rounded=1;strokeColor=#456893;" parent="1" vertex="1">
          <mxGeometry x="310" y="953" width="40" height="40" as="geometry" />
        </mxCell>
        <mxCell id="qOO70KsoDbuKheBEqoZG-163" value="&lt;span style=&quot;color: rgb(175, 185, 199); font-size: 17px;&quot;&gt;F9&lt;/span&gt;" style="whiteSpace=wrap;html=1;aspect=fixed;fontSize=14;fontFamily=Verdana;fontStyle=1;fillColor=#383E47;strokeColor=#FCFCFC;fontColor=#090e14;rounded=1;" parent="1" vertex="1">
          <mxGeometry x="150" y="1050" width="40" height="40" as="geometry" />
        </mxCell>
        <mxCell id="qOO70KsoDbuKheBEqoZG-164" value="F10" style="whiteSpace=wrap;html=1;aspect=fixed;fontSize=17;fontFamily=Verdana;fontStyle=1;fontColor=#AFB9C7;fillColor=#383E47;rounded=1;" parent="1" vertex="1">
          <mxGeometry x="190" y="1025" width="40" height="40" as="geometry" />
        </mxCell>
        <mxCell id="qOO70KsoDbuKheBEqoZG-165" value="F11" style="whiteSpace=wrap;html=1;aspect=fixed;fontSize=17;fontFamily=Verdana;fontStyle=1;fontColor=#AFB9C7;fillColor=#383E47;rounded=1;" parent="1" vertex="1">
          <mxGeometry x="230" y="1010" width="40" height="40" as="geometry" />
        </mxCell>
        <mxCell id="qOO70KsoDbuKheBEqoZG-166" value="F12" style="whiteSpace=wrap;html=1;aspect=fixed;fontSize=17;fontFamily=Verdana;fontStyle=1;fontColor=#AFB9C7;fillColor=#383E47;rounded=1;" parent="1" vertex="1">
          <mxGeometry x="270" y="1025" width="40" height="40" as="geometry" />
        </mxCell>
        <mxCell id="qOO70KsoDbuKheBEqoZG-167" value="BT Clear" style="whiteSpace=wrap;html=1;aspect=fixed;fontSize=14;fontFamily=Verdana;fontStyle=1;fillColor=light-dark(#5c8cca, #b4b9c1);strokeColor=#456893;fontColor=#090e14;rounded=1;" parent="1" vertex="1">
          <mxGeometry x="310" y="1033" width="40" height="40" as="geometry" />
        </mxCell>
        <mxCell id="qOO70KsoDbuKheBEqoZG-170" value="&lt;span style=&quot;color: rgb(9, 14, 20); font-size: 14px;&quot;&gt;BT&lt;/span&gt;&lt;br style=&quot;color: rgb(9, 14, 20); font-size: 14px;&quot;&gt;&lt;font color=&quot;#090e14&quot;&gt;&lt;span style=&quot;font-size: 14px;&quot;&gt;2&lt;/span&gt;&lt;/font&gt;" style="whiteSpace=wrap;html=1;aspect=fixed;fontSize=17;fontFamily=Verdana;fontStyle=1;fontColor=#AFB9C7;fillColor=#5C8CCA;rounded=1;strokeColor=#456893;" parent="1" vertex="1">
          <mxGeometry x="478" y="953" width="40" height="40" as="geometry" />
        </mxCell>
        <mxCell id="qOO70KsoDbuKheBEqoZG-171" value="&lt;font style=&quot;font-size: 14px;&quot;&gt;Tog&lt;/font&gt;&lt;div&gt;&lt;font style=&quot;font-size: 14px;&quot;&gt;Out&lt;/font&gt;&lt;/div&gt;" style="whiteSpace=wrap;html=1;aspect=fixed;fontSize=17;fontFamily=Verdana;fontStyle=1;fontColor=#AFB9C7;fillColor=#383E47;rounded=1;" parent="1" vertex="1">
          <mxGeometry x="518" y="945" width="40" height="40" as="geometry" />
        </mxCell>
        <mxCell id="qOO70KsoDbuKheBEqoZG-172" value="" style="whiteSpace=wrap;html=1;aspect=fixed;fontSize=17;fontFamily=Verdana;fontStyle=1;fontColor=#AFB9C7;fillColor=#383E47;rounded=1;" parent="1" vertex="1">
          <mxGeometry x="558" y="930" width="40" height="40" as="geometry" />
        </mxCell>
        <mxCell id="qOO70KsoDbuKheBEqoZG-173" value="" style="whiteSpace=wrap;html=1;aspect=fixed;fontSize=17;fontFamily=Verdana;fontStyle=1;fontColor=#AFB9C7;fillColor=#383E47;rounded=1;" parent="1" vertex="1">
          <mxGeometry x="598" y="945" width="40" height="40" as="geometry" />
        </mxCell>
        <mxCell id="qOO70KsoDbuKheBEqoZG-174" value="" style="whiteSpace=wrap;html=1;aspect=fixed;fontSize=17;fontFamily=Verdana;fontStyle=1;fontColor=#AFB9C7;fillColor=#383E47;rounded=1;" parent="1" vertex="1">
          <mxGeometry x="638" y="970" width="40" height="40" as="geometry" />
        </mxCell>
        <mxCell id="qOO70KsoDbuKheBEqoZG-175" value="&lt;span style=&quot;color: rgb(9, 14, 20); font-size: 14px;&quot;&gt;BT&lt;/span&gt;&lt;br style=&quot;color: rgb(9, 14, 20); font-size: 14px;&quot;&gt;&lt;font color=&quot;#090e14&quot;&gt;&lt;span style=&quot;font-size: 14px;&quot;&gt;3&lt;/span&gt;&lt;/font&gt;" style="whiteSpace=wrap;html=1;aspect=fixed;fontSize=17;fontFamily=Verdana;fontStyle=1;fontColor=#AFB9C7;fillColor=light-dark(#5C8CCA,#B4B9C1);rounded=1;strokeColor=#456893;" parent="1" vertex="1">
          <mxGeometry x="478" y="993" width="40" height="40" as="geometry" />
        </mxCell>
        <mxCell id="qOO70KsoDbuKheBEqoZG-176" value="" style="whiteSpace=wrap;html=1;aspect=fixed;fontSize=17;fontFamily=Verdana;fontStyle=1;fontColor=#AFB9C7;fillColor=#383E47;rounded=1;" parent="1" vertex="1">
          <mxGeometry x="518" y="985" width="40" height="40" as="geometry" />
        </mxCell>
        <mxCell id="qOO70KsoDbuKheBEqoZG-177" value="" style="whiteSpace=wrap;html=1;aspect=fixed;fontSize=14;fontFamily=Verdana;fontStyle=1;fontColor=#AFB9C7;fillColor=#383E47;rounded=1;" parent="1" vertex="1">
          <mxGeometry x="558" y="970" width="40" height="40" as="geometry" />
        </mxCell>
        <mxCell id="qOO70KsoDbuKheBEqoZG-178" value="" style="whiteSpace=wrap;html=1;aspect=fixed;fontSize=17;fontFamily=Verdana;fontStyle=1;fontColor=#AFB9C7;fillColor=#383E47;rounded=1;" parent="1" vertex="1">
          <mxGeometry x="598" y="985" width="40" height="40" as="geometry" />
        </mxCell>
        <mxCell id="qOO70KsoDbuKheBEqoZG-179" value="" style="whiteSpace=wrap;html=1;aspect=fixed;fontSize=17;fontFamily=Verdana;fontStyle=1;fontColor=#AFB9C7;fillColor=#383E47;rounded=1;" parent="1" vertex="1">
          <mxGeometry x="638" y="1010" width="40" height="40" as="geometry" />
        </mxCell>
        <mxCell id="qOO70KsoDbuKheBEqoZG-180" value="BT&lt;br style=&quot;font-size: 14px;&quot;&gt;4" style="whiteSpace=wrap;html=1;aspect=fixed;fontSize=14;fontFamily=Verdana;fontStyle=1;fillColor=#5C8CCA;strokeColor=#456893;fontColor=#090e14;rounded=1;" parent="1" vertex="1">
          <mxGeometry x="478" y="1033" width="40" height="40" as="geometry" />
        </mxCell>
        <mxCell id="qOO70KsoDbuKheBEqoZG-181" value="" style="whiteSpace=wrap;html=1;aspect=fixed;fontSize=17;fontFamily=Verdana;fontStyle=1;fontColor=#AFB9C7;fillColor=#383E47;rounded=1;" parent="1" vertex="1">
          <mxGeometry x="518" y="1025" width="40" height="40" as="geometry" />
        </mxCell>
        <mxCell id="qOO70KsoDbuKheBEqoZG-182" value="" style="whiteSpace=wrap;html=1;aspect=fixed;fontSize=17;fontFamily=Verdana;fontStyle=1;fontColor=#AFB9C7;fillColor=#383E47;rounded=1;" parent="1" vertex="1">
          <mxGeometry x="558" y="1010" width="40" height="40" as="geometry" />
        </mxCell>
        <mxCell id="qOO70KsoDbuKheBEqoZG-183" value="" style="whiteSpace=wrap;html=1;aspect=fixed;fontSize=17;fontFamily=Verdana;fontStyle=1;fontColor=#AFB9C7;fillColor=#383E47;rounded=1;" parent="1" vertex="1">
          <mxGeometry x="598" y="1025" width="40" height="40" as="geometry" />
        </mxCell>
        <mxCell id="WtI-apBnebLx4piu1zX0-6" style="edgeStyle=orthogonalEdgeStyle;rounded=1;orthogonalLoop=1;jettySize=auto;html=1;entryX=1;entryY=0.5;entryDx=0;entryDy=0;curved=0;strokeColor=light-dark(#d80073, #ededed);" parent="1" source="qOO70KsoDbuKheBEqoZG-184" target="qOO70KsoDbuKheBEqoZG-288" edge="1">
          <mxGeometry relative="1" as="geometry">
            <Array as="points">
              <mxPoint x="658" y="1235" />
            </Array>
          </mxGeometry>
        </mxCell>
        <mxCell id="qOO70KsoDbuKheBEqoZG-184" value="&lt;font style=&quot;font-size: 12px; color: rgb(255, 255, 255); line-height: 100%;&quot;&gt;Game&lt;/font&gt;" style="whiteSpace=wrap;html=1;aspect=fixed;fontSize=17;fontFamily=Verdana;fontStyle=1;fontColor=#AFB9C7;fillColor=light-dark(#D80073,#B4B9C1);rounded=1;strokeColor=#AB005B;" parent="1" vertex="1">
          <mxGeometry x="638" y="1050" width="40" height="40" as="geometry" />
        </mxCell>
        <mxCell id="qOO70KsoDbuKheBEqoZG-185" value="._." style="whiteSpace=wrap;html=1;aspect=fixed;rotation=-30;fontSize=17;fontFamily=Verdana;fontStyle=1;fontColor=#AFB9C7;fillColor=#383E47;rounded=1;" parent="1" vertex="1">
          <mxGeometry x="450" y="1097" width="40" height="40" as="geometry" />
        </mxCell>
        <mxCell id="qOO70KsoDbuKheBEqoZG-186" value="" style="whiteSpace=wrap;html=1;aspect=fixed;rotation=-15;fontSize=17;fontFamily=Verdana;fontStyle=1;fontColor=#333333;fillColor=none;strokeColor=#666666;rounded=1;shadow=0;dashed=1;glass=0;sketch=0;" parent="1" vertex="1">
          <mxGeometry x="498" y="1079" width="40" height="40" as="geometry" />
        </mxCell>
        <mxCell id="qOO70KsoDbuKheBEqoZG-187" value="Misc" style="rounded=0;whiteSpace=wrap;html=1;fontFamily=Verdana;fontSize=17;fontStyle=1;fillColor=#60a917;strokeColor=#2D7600;fontColor=#ffffff;" parent="1" vertex="1">
          <mxGeometry x="308.5" y="900" width="210" height="30" as="geometry" />
        </mxCell>
        <mxCell id="qOO70KsoDbuKheBEqoZG-190" value="&lt;span style=&quot;color: rgb(175, 185, 199);&quot;&gt;F5&lt;/span&gt;" style="whiteSpace=wrap;html=1;aspect=fixed;fontSize=17;fontFamily=Verdana;fontStyle=1;fillColor=#383E47;strokeColor=#FCFCFC;fontColor=#302316;rounded=1;" parent="1" vertex="1">
          <mxGeometry x="150" y="1010" width="40" height="40" as="geometry" />
        </mxCell>
        <mxCell id="qOO70KsoDbuKheBEqoZG-191" value="&lt;span style=&quot;color: rgb(175, 185, 199);&quot;&gt;F6&lt;/span&gt;" style="whiteSpace=wrap;html=1;aspect=fixed;fontSize=17;fontFamily=Verdana;fontStyle=1;fillColor=#383E47;strokeColor=#FCFCFC;fontColor=#302316;rounded=1;" parent="1" vertex="1">
          <mxGeometry x="190" y="985" width="40" height="40" as="geometry" />
        </mxCell>
        <mxCell id="qOO70KsoDbuKheBEqoZG-192" value="&lt;span style=&quot;color: rgb(175, 185, 199);&quot;&gt;F7&lt;/span&gt;" style="whiteSpace=wrap;html=1;aspect=fixed;fontSize=17;fontFamily=Verdana;fontStyle=1;fillColor=#383E47;strokeColor=#FCFCFC;fontColor=#302316;rounded=1;" parent="1" vertex="1">
          <mxGeometry x="230" y="970" width="40" height="40" as="geometry" />
        </mxCell>
        <mxCell id="qOO70KsoDbuKheBEqoZG-193" value="&lt;span style=&quot;color: rgb(175, 185, 199);&quot;&gt;F8&lt;/span&gt;" style="whiteSpace=wrap;html=1;aspect=fixed;fontSize=17;fontFamily=Verdana;fontStyle=1;fillColor=#383E47;strokeColor=light-dark(#000000, #f7f7f8);fontColor=#302316;rounded=1;" parent="1" vertex="1">
          <mxGeometry x="270" y="985" width="40" height="40" as="geometry" />
        </mxCell>
        <mxCell id="qOO70KsoDbuKheBEqoZG-194" value="&lt;span style=&quot;color: rgb(9, 14, 20); font-size: 14px;&quot;&gt;BT&lt;/span&gt;&lt;br style=&quot;color: rgb(9, 14, 20); font-size: 14px;&quot;&gt;&lt;span style=&quot;color: rgb(9, 14, 20); font-size: 14px;&quot;&gt;0&lt;/span&gt;" style="whiteSpace=wrap;html=1;aspect=fixed;fontSize=17;fontFamily=Verdana;fontStyle=1;fillColor=light-dark(#5C8CCA,#B4B9C1);strokeColor=#456893;fontColor=#302316;rounded=1;" parent="1" vertex="1">
          <mxGeometry x="310" y="993" width="40" height="40" as="geometry" />
        </mxCell>
        <mxCell id="qOO70KsoDbuKheBEqoZG-196" value="" style="whiteSpace=wrap;html=1;aspect=fixed;fontSize=17;fontFamily=Verdana;fontStyle=1;fontColor=#AFB9C7;fillColor=#383E47;rounded=1;" parent="1" vertex="1">
          <mxGeometry x="142" y="1570" width="40" height="40" as="geometry" />
        </mxCell>
        <mxCell id="qOO70KsoDbuKheBEqoZG-197" value="" style="whiteSpace=wrap;html=1;aspect=fixed;fontSize=17;fontFamily=Verdana;fontStyle=1;fontColor=#AFB9C7;fillColor=#383E47;rounded=1;" parent="1" vertex="1">
          <mxGeometry x="182" y="1545" width="40" height="40" as="geometry" />
        </mxCell>
        <mxCell id="qOO70KsoDbuKheBEqoZG-198" value="" style="whiteSpace=wrap;html=1;aspect=fixed;fontSize=17;fontFamily=Verdana;fontStyle=1;fontColor=#AFB9C7;fillColor=#383E47;rounded=1;" parent="1" vertex="1">
          <mxGeometry x="222" y="1530" width="40" height="40" as="geometry" />
        </mxCell>
        <mxCell id="qOO70KsoDbuKheBEqoZG-199" value="È" style="whiteSpace=wrap;html=1;aspect=fixed;fontSize=17;fontFamily=Verdana;fontStyle=1;fontColor=#AFB9C7;fillColor=#383E47;rounded=1;" parent="1" vertex="1">
          <mxGeometry x="262" y="1545" width="40" height="40" as="geometry" />
        </mxCell>
        <mxCell id="qOO70KsoDbuKheBEqoZG-200" value="" style="whiteSpace=wrap;html=1;aspect=fixed;fontSize=17;fontFamily=Verdana;fontStyle=1;fontColor=#AFB9C7;fillColor=#383E47;rounded=1;" parent="1" vertex="1">
          <mxGeometry x="302" y="1553" width="40" height="40" as="geometry" />
        </mxCell>
        <mxCell id="qOO70KsoDbuKheBEqoZG-201" value="à" style="whiteSpace=wrap;html=1;aspect=fixed;fontSize=17;fontFamily=Verdana;fontStyle=1;fontColor=#AFB9C7;fillColor=#383E47;rounded=1;" parent="1" vertex="1">
          <mxGeometry x="142" y="1610" width="40" height="40" as="geometry" />
        </mxCell>
        <mxCell id="qOO70KsoDbuKheBEqoZG-202" value="ì" style="whiteSpace=wrap;html=1;aspect=fixed;fontSize=17;fontFamily=Verdana;fontStyle=1;fontColor=#AFB9C7;fillColor=#383E47;rounded=1;" parent="1" vertex="1">
          <mxGeometry x="182" y="1585" width="40" height="40" as="geometry" />
        </mxCell>
        <mxCell id="qOO70KsoDbuKheBEqoZG-203" value="ò" style="whiteSpace=wrap;html=1;aspect=fixed;fontSize=17;fontFamily=Verdana;fontStyle=1;fontColor=#AFB9C7;fillColor=#383E47;rounded=1;" parent="1" vertex="1">
          <mxGeometry x="222" y="1570" width="40" height="40" as="geometry" />
        </mxCell>
        <mxCell id="qOO70KsoDbuKheBEqoZG-204" value="è" style="whiteSpace=wrap;html=1;aspect=fixed;fontSize=17;fontFamily=Verdana;fontStyle=1;fontColor=#AFB9C7;fillColor=#383E47;rounded=1;" parent="1" vertex="1">
          <mxGeometry x="262" y="1585" width="40" height="40" as="geometry" />
        </mxCell>
        <mxCell id="qOO70KsoDbuKheBEqoZG-205" value="é" style="whiteSpace=wrap;html=1;aspect=fixed;fontSize=17;fontFamily=Verdana;fontStyle=1;fontColor=#AFB9C7;fillColor=#383E47;rounded=1;" parent="1" vertex="1">
          <mxGeometry x="302" y="1593" width="40" height="40" as="geometry" />
        </mxCell>
        <mxCell id="qOO70KsoDbuKheBEqoZG-206" value="" style="whiteSpace=wrap;html=1;aspect=fixed;fontSize=17;fontFamily=Verdana;fontStyle=1;fontColor=#AFB9C7;fillColor=#383E47;rounded=1;" parent="1" vertex="1">
          <mxGeometry x="142" y="1650" width="40" height="40" as="geometry" />
        </mxCell>
        <mxCell id="qOO70KsoDbuKheBEqoZG-207" value="" style="whiteSpace=wrap;html=1;aspect=fixed;fontSize=17;fontFamily=Verdana;fontStyle=1;fontColor=#AFB9C7;fillColor=#383E47;rounded=1;" parent="1" vertex="1">
          <mxGeometry x="182" y="1625" width="40" height="40" as="geometry" />
        </mxCell>
        <mxCell id="qOO70KsoDbuKheBEqoZG-208" value="" style="whiteSpace=wrap;html=1;aspect=fixed;fontSize=17;fontFamily=Verdana;fontStyle=1;fontColor=#AFB9C7;fillColor=#383E47;rounded=1;" parent="1" vertex="1">
          <mxGeometry x="222" y="1610" width="40" height="40" as="geometry" />
        </mxCell>
        <mxCell id="qOO70KsoDbuKheBEqoZG-209" value="ù" style="whiteSpace=wrap;html=1;aspect=fixed;fontSize=17;fontFamily=Verdana;fontStyle=1;fontColor=#AFB9C7;fillColor=#383E47;rounded=1;" parent="1" vertex="1">
          <mxGeometry x="262" y="1625" width="40" height="40" as="geometry" />
        </mxCell>
        <mxCell id="qOO70KsoDbuKheBEqoZG-210" value="" style="whiteSpace=wrap;html=1;aspect=fixed;fontSize=17;fontFamily=Verdana;fontStyle=1;fontColor=#AFB9C7;fillColor=#383E47;rounded=1;" parent="1" vertex="1">
          <mxGeometry x="302" y="1633" width="40" height="40" as="geometry" />
        </mxCell>
        <mxCell id="qOO70KsoDbuKheBEqoZG-211" value="" style="whiteSpace=wrap;html=1;aspect=fixed;rotation=15;fontSize=17;fontFamily=Verdana;fontStyle=1;fontColor=#AFB9C7;fillColor=#383E47;rounded=1;" parent="1" vertex="1">
          <mxGeometry x="282" y="1679" width="40" height="40" as="geometry" />
        </mxCell>
        <mxCell id="qOO70KsoDbuKheBEqoZG-212" value="" style="whiteSpace=wrap;html=1;aspect=fixed;rotation=30;fontSize=17;fontFamily=Verdana;fontStyle=1;fontColor=#AFB9C7;fillColor=#383E47;rounded=1;" parent="1" vertex="1">
          <mxGeometry x="330" y="1697" width="40" height="40" as="geometry" />
        </mxCell>
        <mxCell id="qOO70KsoDbuKheBEqoZG-213" value="" style="whiteSpace=wrap;html=1;aspect=fixed;fontSize=17;fontFamily=Verdana;fontStyle=1;fontColor=#AFB9C7;fillColor=#383E47;rounded=1;" parent="1" vertex="1">
          <mxGeometry x="470" y="1553" width="40" height="40" as="geometry" />
        </mxCell>
        <mxCell id="qOO70KsoDbuKheBEqoZG-214" value="" style="whiteSpace=wrap;html=1;aspect=fixed;fontSize=17;fontFamily=Verdana;fontStyle=1;fontColor=#AFB9C7;fillColor=#383E47;rounded=1;" parent="1" vertex="1">
          <mxGeometry x="510" y="1545" width="40" height="40" as="geometry" />
        </mxCell>
        <mxCell id="qOO70KsoDbuKheBEqoZG-215" value="" style="whiteSpace=wrap;html=1;aspect=fixed;fontSize=17;fontFamily=Verdana;fontStyle=1;fontColor=#AFB9C7;fillColor=#383E47;rounded=1;" parent="1" vertex="1">
          <mxGeometry x="550" y="1530" width="40" height="40" as="geometry" />
        </mxCell>
        <mxCell id="qOO70KsoDbuKheBEqoZG-216" value="" style="whiteSpace=wrap;html=1;aspect=fixed;fontSize=17;fontFamily=Verdana;fontStyle=1;fontColor=#AFB9C7;fillColor=#383E47;rounded=1;" parent="1" vertex="1">
          <mxGeometry x="590" y="1545" width="40" height="40" as="geometry" />
        </mxCell>
        <mxCell id="qOO70KsoDbuKheBEqoZG-217" value="" style="whiteSpace=wrap;html=1;aspect=fixed;fontSize=17;fontFamily=Verdana;fontStyle=1;fontColor=#AFB9C7;fillColor=#383E47;rounded=1;" parent="1" vertex="1">
          <mxGeometry x="630" y="1570" width="40" height="40" as="geometry" />
        </mxCell>
        <mxCell id="qOO70KsoDbuKheBEqoZG-218" value="" style="whiteSpace=wrap;html=1;aspect=fixed;fontSize=17;fontFamily=Verdana;fontStyle=1;fontColor=#AFB9C7;fillColor=#383E47;rounded=1;" parent="1" vertex="1">
          <mxGeometry x="470" y="1593" width="40" height="40" as="geometry" />
        </mxCell>
        <mxCell id="qOO70KsoDbuKheBEqoZG-219" value="" style="whiteSpace=wrap;html=1;aspect=fixed;fontSize=17;fontFamily=Verdana;fontStyle=1;fontColor=#AFB9C7;fillColor=#383E47;rounded=1;" parent="1" vertex="1">
          <mxGeometry x="510" y="1585" width="40" height="40" as="geometry" />
        </mxCell>
        <mxCell id="qOO70KsoDbuKheBEqoZG-220" value="" style="whiteSpace=wrap;html=1;aspect=fixed;fontSize=17;fontFamily=Verdana;fontStyle=1;fontColor=#AFB9C7;fillColor=#383E47;rounded=1;" parent="1" vertex="1">
          <mxGeometry x="550" y="1570" width="40" height="40" as="geometry" />
        </mxCell>
        <mxCell id="qOO70KsoDbuKheBEqoZG-221" value="" style="whiteSpace=wrap;html=1;aspect=fixed;fontSize=17;fontFamily=Verdana;fontStyle=1;fontColor=#AFB9C7;fillColor=#383E47;rounded=1;" parent="1" vertex="1">
          <mxGeometry x="590" y="1585" width="40" height="40" as="geometry" />
        </mxCell>
        <mxCell id="qOO70KsoDbuKheBEqoZG-222" value="" style="whiteSpace=wrap;html=1;aspect=fixed;fontSize=17;fontFamily=Verdana;fontStyle=1;fontColor=#AFB9C7;fillColor=#383E47;rounded=1;" parent="1" vertex="1">
          <mxGeometry x="630" y="1610" width="40" height="40" as="geometry" />
        </mxCell>
        <mxCell id="qOO70KsoDbuKheBEqoZG-223" value="" style="whiteSpace=wrap;html=1;aspect=fixed;fontSize=17;fontFamily=Verdana;fontStyle=1;fontColor=#AFB9C7;fillColor=#383E47;rounded=1;" parent="1" vertex="1">
          <mxGeometry x="470" y="1633" width="40" height="40" as="geometry" />
        </mxCell>
        <mxCell id="qOO70KsoDbuKheBEqoZG-224" value="" style="whiteSpace=wrap;html=1;aspect=fixed;fontSize=17;fontFamily=Verdana;fontStyle=1;fontColor=#AFB9C7;fillColor=#383E47;rounded=1;" parent="1" vertex="1">
          <mxGeometry x="510" y="1625" width="40" height="40" as="geometry" />
        </mxCell>
        <mxCell id="qOO70KsoDbuKheBEqoZG-225" value="" style="whiteSpace=wrap;html=1;aspect=fixed;fontSize=17;fontFamily=Verdana;fontStyle=1;fontColor=#AFB9C7;fillColor=#383E47;rounded=1;" parent="1" vertex="1">
          <mxGeometry x="550" y="1610" width="40" height="40" as="geometry" />
        </mxCell>
        <mxCell id="qOO70KsoDbuKheBEqoZG-226" value="" style="whiteSpace=wrap;html=1;aspect=fixed;fontSize=17;fontFamily=Verdana;fontStyle=1;fontColor=#AFB9C7;fillColor=#383E47;rounded=1;" parent="1" vertex="1">
          <mxGeometry x="590" y="1625" width="40" height="40" as="geometry" />
        </mxCell>
        <mxCell id="qOO70KsoDbuKheBEqoZG-227" value="" style="whiteSpace=wrap;html=1;aspect=fixed;fontSize=17;fontFamily=Verdana;fontStyle=1;fontColor=#AFB9C7;fillColor=#383E47;rounded=1;" parent="1" vertex="1">
          <mxGeometry x="630" y="1650" width="40" height="40" as="geometry" />
        </mxCell>
        <mxCell id="qOO70KsoDbuKheBEqoZG-228" value="" style="whiteSpace=wrap;html=1;aspect=fixed;rotation=-30;fontSize=17;fontFamily=Verdana;fontStyle=1;fontColor=#333333;fillColor=none;strokeColor=#666666;rounded=1;shadow=0;dashed=1;glass=0;sketch=0;" parent="1" vertex="1">
          <mxGeometry x="442" y="1697" width="40" height="40" as="geometry" />
        </mxCell>
        <mxCell id="qOO70KsoDbuKheBEqoZG-229" value="" style="whiteSpace=wrap;html=1;aspect=fixed;rotation=-15;fontSize=17;fontFamily=Verdana;fontStyle=1;fontColor=#333333;fillColor=none;strokeColor=#666666;rounded=1;shadow=0;dashed=1;glass=0;sketch=0;" parent="1" vertex="1">
          <mxGeometry x="490" y="1679" width="40" height="40" as="geometry" />
        </mxCell>
        <mxCell id="qOO70KsoDbuKheBEqoZG-230" value="Acc" style="rounded=0;whiteSpace=wrap;html=1;fontFamily=Verdana;fontSize=17;fontStyle=1;fillColor=#6a00ff;strokeColor=#3700CC;fontColor=#ffffff;" parent="1" vertex="1">
          <mxGeometry x="300.5" y="1500" width="210" height="30" as="geometry" />
        </mxCell>
        <mxCell id="qOO70KsoDbuKheBEqoZG-241" style="edgeStyle=orthogonalEdgeStyle;rounded=1;orthogonalLoop=1;jettySize=auto;html=1;exitX=0.5;exitY=0;exitDx=0;exitDy=0;entryX=1;entryY=0.5;entryDx=0;entryDy=0;fontFamily=Verdana;fontSize=14;fontColor=#3399FF;strokeColor=#3399FF;" parent="1" source="qOO70KsoDbuKheBEqoZG-231" target="qOO70KsoDbuKheBEqoZG-167" edge="1">
          <mxGeometry relative="1" as="geometry" />
        </mxCell>
        <mxCell id="qOO70KsoDbuKheBEqoZG-242" style="edgeStyle=orthogonalEdgeStyle;rounded=1;orthogonalLoop=1;jettySize=auto;html=1;exitX=0.5;exitY=0;exitDx=0;exitDy=0;entryX=0;entryY=0.5;entryDx=0;entryDy=0;fontFamily=Verdana;fontSize=14;fontColor=#3399FF;strokeColor=#3399FF;" parent="1" source="qOO70KsoDbuKheBEqoZG-231" target="qOO70KsoDbuKheBEqoZG-180" edge="1">
          <mxGeometry relative="1" as="geometry" />
        </mxCell>
        <mxCell id="qOO70KsoDbuKheBEqoZG-231" value="Select Bluetooth Profile" style="text;html=1;strokeColor=none;fillColor=none;align=center;verticalAlign=middle;whiteSpace=wrap;rounded=0;shadow=0;glass=0;sketch=0;fontFamily=Verdana;fontSize=14;fontColor=#3399FF;" parent="1" vertex="1">
          <mxGeometry x="328.5" y="1160" width="169.5" height="20" as="geometry" />
        </mxCell>
        <mxCell id="qOO70KsoDbuKheBEqoZG-235" style="edgeStyle=orthogonalEdgeStyle;rounded=1;orthogonalLoop=1;jettySize=auto;html=1;exitX=0.5;exitY=1;exitDx=0;exitDy=0;fontFamily=Verdana;fontSize=14;fontColor=#3399FF;strokeColor=#FF8000;" parent="1" edge="1">
          <mxGeometry relative="1" as="geometry">
            <mxPoint x="210" y="1180" as="sourcePoint" />
            <mxPoint x="210" y="1180" as="targetPoint" />
          </mxGeometry>
        </mxCell>
        <mxCell id="qOO70KsoDbuKheBEqoZG-244" style="edgeStyle=orthogonalEdgeStyle;rounded=1;orthogonalLoop=1;jettySize=auto;html=1;exitX=0.5;exitY=1;exitDx=0;exitDy=0;entryX=1;entryY=0.5;entryDx=0;entryDy=0;fontFamily=Verdana;fontSize=14;fontColor=#CC99FF;strokeColor=#CC99FF;" parent="1" source="qOO70KsoDbuKheBEqoZG-243" target="qOO70KsoDbuKheBEqoZG-127" edge="1">
          <mxGeometry relative="1" as="geometry" />
        </mxCell>
        <mxCell id="qOO70KsoDbuKheBEqoZG-243" value="Caps&lt;br&gt;Lock" style="text;html=1;align=center;verticalAlign=middle;whiteSpace=wrap;rounded=0;shadow=0;glass=0;sketch=0;fontFamily=Verdana;fontSize=14;fillColor=none;fontColor=#CC99FF;" parent="1" vertex="1">
          <mxGeometry x="678" y="633" width="40" height="40" as="geometry" />
        </mxCell>
        <mxCell id="qOO70KsoDbuKheBEqoZG-254" value="-&amp;gt;" style="whiteSpace=wrap;html=1;aspect=fixed;fontSize=17;fontFamily=Verdana;fontStyle=1;fontColor=#AFB9C7;fillColor=#383E47;rounded=1;" parent="1" vertex="1">
          <mxGeometry x="142" y="1290" width="40" height="40" as="geometry" />
        </mxCell>
        <mxCell id="qOO70KsoDbuKheBEqoZG-255" value="Q" style="whiteSpace=wrap;html=1;aspect=fixed;fontSize=17;fontFamily=Verdana;fontStyle=1;fontColor=#AFB9C7;fillColor=#383E47;rounded=1;" parent="1" vertex="1">
          <mxGeometry x="182" y="1265" width="40" height="40" as="geometry" />
        </mxCell>
        <mxCell id="qOO70KsoDbuKheBEqoZG-256" value="W" style="whiteSpace=wrap;html=1;aspect=fixed;fontSize=17;fontFamily=Verdana;fontStyle=1;fontColor=#AFB9C7;fillColor=#383E47;rounded=1;" parent="1" vertex="1">
          <mxGeometry x="222" y="1250" width="40" height="40" as="geometry" />
        </mxCell>
        <mxCell id="qOO70KsoDbuKheBEqoZG-257" value="E" style="whiteSpace=wrap;html=1;aspect=fixed;fontSize=17;fontFamily=Verdana;fontStyle=1;fontColor=#AFB9C7;fillColor=#383E47;rounded=1;" parent="1" vertex="1">
          <mxGeometry x="262" y="1265" width="40" height="40" as="geometry" />
        </mxCell>
        <mxCell id="qOO70KsoDbuKheBEqoZG-258" value="R" style="whiteSpace=wrap;html=1;aspect=fixed;fontSize=17;fontFamily=Verdana;fontStyle=1;fontColor=#AFB9C7;fillColor=#383E47;rounded=1;" parent="1" vertex="1">
          <mxGeometry x="302" y="1273" width="40" height="40" as="geometry" />
        </mxCell>
        <mxCell id="qOO70KsoDbuKheBEqoZG-259" value="&lt;span style=&quot;font-family: &amp;quot;segoe ui emoji&amp;quot;, &amp;quot;apple color emoji&amp;quot;, &amp;quot;noto color emoji&amp;quot;; font-size: 28px;&quot;&gt;&lt;font style=&quot;color: light-dark(rgb(180, 185, 193), rgb(180, 185, 193));&quot;&gt;⇧&lt;/font&gt;&lt;/span&gt;" style="whiteSpace=wrap;html=1;aspect=fixed;fontSize=17;fontFamily=Verdana;fontStyle=1;fontColor=#AFB9C7;fillColor=#383E47;rounded=1;" parent="1" vertex="1">
          <mxGeometry x="142" y="1330" width="40" height="40" as="geometry" />
        </mxCell>
        <mxCell id="qOO70KsoDbuKheBEqoZG-260" value="A" style="whiteSpace=wrap;html=1;aspect=fixed;fontSize=17;fontFamily=Verdana;fontStyle=1;fontColor=#AFB9C7;fillColor=#383E47;rounded=1;" parent="1" vertex="1">
          <mxGeometry x="182" y="1305" width="40" height="40" as="geometry" />
        </mxCell>
        <mxCell id="qOO70KsoDbuKheBEqoZG-261" value="S" style="whiteSpace=wrap;html=1;aspect=fixed;fontSize=17;fontFamily=Verdana;fontStyle=1;fontColor=#AFB9C7;fillColor=#383E47;rounded=1;" parent="1" vertex="1">
          <mxGeometry x="222" y="1290" width="40" height="40" as="geometry" />
        </mxCell>
        <mxCell id="qOO70KsoDbuKheBEqoZG-262" value="D" style="whiteSpace=wrap;html=1;aspect=fixed;fontSize=17;fontFamily=Verdana;fontStyle=1;fontColor=#AFB9C7;fillColor=#383E47;rounded=1;" parent="1" vertex="1">
          <mxGeometry x="262" y="1305" width="40" height="40" as="geometry" />
        </mxCell>
        <mxCell id="qOO70KsoDbuKheBEqoZG-263" value="F" style="whiteSpace=wrap;html=1;aspect=fixed;fontSize=17;fontFamily=Verdana;fontStyle=1;fontColor=#AFB9C7;fillColor=#383E47;rounded=1;" parent="1" vertex="1">
          <mxGeometry x="302" y="1313" width="40" height="40" as="geometry" />
        </mxCell>
        <mxCell id="qOO70KsoDbuKheBEqoZG-264" value="&lt;font style=&quot;font-size: 13px;&quot;&gt;LCtrl&lt;/font&gt;" style="whiteSpace=wrap;html=1;aspect=fixed;fontSize=17;fontFamily=Verdana;fontStyle=1;fontColor=#AFB9C7;fillColor=#383E47;rounded=1;" parent="1" vertex="1">
          <mxGeometry x="142" y="1370" width="40" height="40" as="geometry" />
        </mxCell>
        <mxCell id="qOO70KsoDbuKheBEqoZG-265" value="Z" style="whiteSpace=wrap;html=1;aspect=fixed;fontSize=17;fontFamily=Verdana;fontStyle=1;fontColor=#AFB9C7;fillColor=#383E47;rounded=1;" parent="1" vertex="1">
          <mxGeometry x="182" y="1345" width="40" height="40" as="geometry" />
        </mxCell>
        <mxCell id="qOO70KsoDbuKheBEqoZG-266" value="X" style="whiteSpace=wrap;html=1;aspect=fixed;fontSize=17;fontFamily=Verdana;fontStyle=1;fontColor=#AFB9C7;fillColor=#383E47;rounded=1;" parent="1" vertex="1">
          <mxGeometry x="222" y="1330" width="40" height="40" as="geometry" />
        </mxCell>
        <mxCell id="qOO70KsoDbuKheBEqoZG-267" value="C" style="whiteSpace=wrap;html=1;aspect=fixed;fontSize=17;fontFamily=Verdana;fontStyle=1;fontColor=#AFB9C7;fillColor=#383E47;rounded=1;" parent="1" vertex="1">
          <mxGeometry x="262" y="1345" width="40" height="40" as="geometry" />
        </mxCell>
        <mxCell id="qOO70KsoDbuKheBEqoZG-268" value="V" style="whiteSpace=wrap;html=1;aspect=fixed;fontSize=17;fontFamily=Verdana;fontStyle=1;fontColor=#AFB9C7;fillColor=#383E47;rounded=1;" parent="1" vertex="1">
          <mxGeometry x="302" y="1353" width="40" height="40" as="geometry" />
        </mxCell>
        <mxCell id="qOO70KsoDbuKheBEqoZG-269" value="" style="whiteSpace=wrap;html=1;aspect=fixed;rotation=15;fontSize=17;fontFamily=Verdana;fontStyle=1;fontColor=#AFB9C7;fillColor=#383E47;rounded=1;" parent="1" vertex="1">
          <mxGeometry x="282" y="1399" width="40" height="40" as="geometry" />
        </mxCell>
        <mxCell id="qOO70KsoDbuKheBEqoZG-270" value="" style="whiteSpace=wrap;html=1;aspect=fixed;rotation=30;fontSize=17;fontFamily=Verdana;fontStyle=1;fontColor=#333333;fillColor=none;strokeColor=#666666;rounded=1;shadow=0;dashed=1;glass=0;sketch=0;" parent="1" vertex="1">
          <mxGeometry x="330" y="1417" width="40" height="40" as="geometry" />
        </mxCell>
        <mxCell id="qOO70KsoDbuKheBEqoZG-271" value="" style="whiteSpace=wrap;html=1;aspect=fixed;fontSize=17;fontFamily=Verdana;fontStyle=1;fontColor=#AFB9C7;fillColor=#383E47;rounded=1;" parent="1" vertex="1">
          <mxGeometry x="470" y="1273" width="40" height="40" as="geometry" />
        </mxCell>
        <mxCell id="qOO70KsoDbuKheBEqoZG-272" value="" style="whiteSpace=wrap;html=1;aspect=fixed;fontSize=17;fontFamily=Verdana;fontStyle=1;fontColor=#AFB9C7;fillColor=#383E47;rounded=1;" parent="1" vertex="1">
          <mxGeometry x="510" y="1265" width="40" height="40" as="geometry" />
        </mxCell>
        <mxCell id="qOO70KsoDbuKheBEqoZG-273" value="" style="whiteSpace=wrap;html=1;aspect=fixed;fontSize=17;fontFamily=Verdana;fontStyle=1;fontColor=#AFB9C7;fillColor=#383E47;rounded=1;" parent="1" vertex="1">
          <mxGeometry x="550" y="1250" width="40" height="40" as="geometry" />
        </mxCell>
        <mxCell id="qOO70KsoDbuKheBEqoZG-274" value="" style="whiteSpace=wrap;html=1;aspect=fixed;fontSize=17;fontFamily=Verdana;fontStyle=1;fontColor=#AFB9C7;fillColor=#383E47;rounded=1;" parent="1" vertex="1">
          <mxGeometry x="590" y="1265" width="40" height="40" as="geometry" />
        </mxCell>
        <mxCell id="qOO70KsoDbuKheBEqoZG-275" value="" style="whiteSpace=wrap;html=1;aspect=fixed;fontSize=17;fontFamily=Verdana;fontStyle=1;fontColor=#AFB9C7;fillColor=#383E47;rounded=1;" parent="1" vertex="1">
          <mxGeometry x="630" y="1290" width="40" height="40" as="geometry" />
        </mxCell>
        <mxCell id="qOO70KsoDbuKheBEqoZG-276" value="" style="whiteSpace=wrap;html=1;aspect=fixed;fontSize=17;fontFamily=Verdana;fontStyle=1;fontColor=#AFB9C7;fillColor=#383E47;rounded=1;" parent="1" vertex="1">
          <mxGeometry x="470" y="1313" width="40" height="40" as="geometry" />
        </mxCell>
        <mxCell id="qOO70KsoDbuKheBEqoZG-277" value="" style="whiteSpace=wrap;html=1;aspect=fixed;fontSize=17;fontFamily=Verdana;fontStyle=1;fontColor=#AFB9C7;fillColor=#383E47;rounded=1;" parent="1" vertex="1">
          <mxGeometry x="510" y="1305" width="40" height="40" as="geometry" />
        </mxCell>
        <mxCell id="qOO70KsoDbuKheBEqoZG-278" value="" style="whiteSpace=wrap;html=1;aspect=fixed;fontSize=17;fontFamily=Verdana;fontStyle=1;fontColor=#AFB9C7;fillColor=#383E47;rounded=1;" parent="1" vertex="1">
          <mxGeometry x="550" y="1290" width="40" height="40" as="geometry" />
        </mxCell>
        <mxCell id="qOO70KsoDbuKheBEqoZG-279" value="" style="whiteSpace=wrap;html=1;aspect=fixed;fontSize=17;fontFamily=Verdana;fontStyle=1;fontColor=#AFB9C7;fillColor=#383E47;rounded=1;" parent="1" vertex="1">
          <mxGeometry x="590" y="1305" width="40" height="40" as="geometry" />
        </mxCell>
        <mxCell id="qOO70KsoDbuKheBEqoZG-280" value="" style="whiteSpace=wrap;html=1;aspect=fixed;fontSize=17;fontFamily=Verdana;fontStyle=1;fontColor=#AFB9C7;fillColor=#383E47;rounded=1;" parent="1" vertex="1">
          <mxGeometry x="630" y="1330" width="40" height="40" as="geometry" />
        </mxCell>
        <mxCell id="qOO70KsoDbuKheBEqoZG-281" value="" style="whiteSpace=wrap;html=1;aspect=fixed;fontSize=17;fontFamily=Verdana;fontStyle=1;fontColor=#AFB9C7;fillColor=#383E47;rounded=1;" parent="1" vertex="1">
          <mxGeometry x="470" y="1353" width="40" height="40" as="geometry" />
        </mxCell>
        <mxCell id="qOO70KsoDbuKheBEqoZG-282" value="" style="whiteSpace=wrap;html=1;aspect=fixed;fontSize=17;fontFamily=Verdana;fontStyle=1;fontColor=#AFB9C7;fillColor=#383E47;rounded=1;" parent="1" vertex="1">
          <mxGeometry x="510" y="1345" width="40" height="40" as="geometry" />
        </mxCell>
        <mxCell id="qOO70KsoDbuKheBEqoZG-283" value="" style="whiteSpace=wrap;html=1;aspect=fixed;fontSize=17;fontFamily=Verdana;fontStyle=1;fontColor=#AFB9C7;fillColor=#383E47;rounded=1;" parent="1" vertex="1">
          <mxGeometry x="550" y="1330" width="40" height="40" as="geometry" />
        </mxCell>
        <mxCell id="qOO70KsoDbuKheBEqoZG-284" value="" style="whiteSpace=wrap;html=1;aspect=fixed;fontSize=17;fontFamily=Verdana;fontStyle=1;fontColor=#AFB9C7;fillColor=#383E47;rounded=1;" parent="1" vertex="1">
          <mxGeometry x="590" y="1345" width="40" height="40" as="geometry" />
        </mxCell>
        <mxCell id="qOO70KsoDbuKheBEqoZG-285" value="" style="whiteSpace=wrap;html=1;aspect=fixed;fontSize=17;fontFamily=Verdana;fontStyle=1;fontColor=#AFB9C7;fillColor=#383E47;rounded=1;" parent="1" vertex="1">
          <mxGeometry x="630" y="1370" width="40" height="40" as="geometry" />
        </mxCell>
        <mxCell id="qOO70KsoDbuKheBEqoZG-286" value="" style="whiteSpace=wrap;html=1;aspect=fixed;rotation=-30;fontSize=17;fontFamily=Verdana;fontStyle=1;fontColor=#AFB9C7;fillColor=#383E47;rounded=1;" parent="1" vertex="1">
          <mxGeometry x="442" y="1417" width="40" height="40" as="geometry" />
        </mxCell>
        <mxCell id="qOO70KsoDbuKheBEqoZG-287" value="" style="whiteSpace=wrap;html=1;aspect=fixed;rotation=-15;fontSize=17;fontFamily=Verdana;fontStyle=1;fontColor=#333333;fillColor=none;strokeColor=#666666;rounded=1;shadow=0;dashed=1;glass=0;sketch=0;" parent="1" vertex="1">
          <mxGeometry x="490" y="1399" width="40" height="40" as="geometry" />
        </mxCell>
        <mxCell id="qOO70KsoDbuKheBEqoZG-288" value="Gaming" style="rounded=0;whiteSpace=wrap;html=1;fontFamily=Verdana;fontSize=17;fillColor=#d80073;strokeColor=#A50040;fontColor=#ffffff;fontStyle=1" parent="1" vertex="1">
          <mxGeometry x="300.5" y="1220" width="210" height="30" as="geometry" />
        </mxCell>
        <mxCell id="qOO70KsoDbuKheBEqoZG-292" value="" style="whiteSpace=wrap;html=1;aspect=fixed;rotation=15;fontSize=17;fontFamily=Verdana;fontStyle=1;fontColor=#333333;fillColor=none;strokeColor=#666666;rounded=1;shadow=0;dashed=1;glass=0;sketch=0;" parent="1" vertex="1">
          <mxGeometry x="290" y="1079" width="40" height="40" as="geometry" />
        </mxCell>
        <mxCell id="qOO70KsoDbuKheBEqoZG-293" value="&lt;span style=&quot;font-family: &amp;quot;segoe ui emoji&amp;quot;, &amp;quot;apple color emoji&amp;quot;, &amp;quot;noto color emoji&amp;quot;; font-size: 22px;&quot;&gt;⌫&lt;/span&gt;" style="whiteSpace=wrap;html=1;aspect=fixed;rotation=30;fontSize=17;fontFamily=Verdana;fontStyle=1;fontColor=#AFB9C7;fillColor=#383E47;rounded=1;" parent="1" vertex="1">
          <mxGeometry x="338" y="1097" width="40" height="40" as="geometry" />
        </mxCell>
        <mxCell id="WtI-apBnebLx4piu1zX0-2" value="&lt;span style=&quot;font-family: &amp;quot;segoe ui emoji&amp;quot;, &amp;quot;apple color emoji&amp;quot;, &amp;quot;noto color emoji&amp;quot;; font-size: 22px;&quot;&gt;⌫&lt;/span&gt;" style="whiteSpace=wrap;html=1;aspect=fixed;rotation=30;fontSize=30;fontFamily=Verdana;fontStyle=1;fontColor=#AFB9C7;fillColor=#383E47;rounded=1;" parent="1" vertex="1">
          <mxGeometry x="342" y="550" width="40" height="40" as="geometry" />
        </mxCell>
      </root>
    </mxGraphModel>
  </diagram>
</mxfile>
